<?xml version="1.0" standalone="no"?>
<!DOCTYPE svg PUBLIC "-//W3C//DTD SVG 20010904//EN"
 "http://www.w3.org/TR/2001/REC-SVG-20010904/DTD/svg10.dtd">
<svg version="1.0" xmlns="http://www.w3.org/2000/svg"
 width="645.000000pt" height="879.000000pt" viewBox="0 0 645.000000 879.000000"
 preserveAspectRatio="xMidYMid meet">

<g transform="translate(0.000000,879.000000) scale(0.100000,-0.100000)"
fill="#000000" stroke="none">
<path d="M4050 8409 c-44 -29 -120 -41 -120 -18 0 18 -69 41 -88 29 -14 -9
-13 -10 8 -5 21 5 22 4 7 -5 -9 -6 -27 -9 -40 -6 -14 4 -11 1 7 -8 l30 -14
-42 -7 c-27 -4 -48 -3 -56 4 -7 6 -24 10 -37 9 -13 -1 -39 2 -56 6 -26 6 -33
4 -33 -8 0 -10 -6 -13 -16 -9 -13 5 -12 8 4 24 11 9 33 20 48 22 16 2 9 3 -16
1 -25 -2 -72 -15 -105 -28 -33 -14 -68 -26 -77 -26 -10 0 -18 -4 -18 -10 0 -5
-5 -10 -12 -10 -22 0 14 28 57 45 31 12 33 14 10 10 -16 -4 -56 -22 -88 -41
-37 -22 -72 -34 -95 -34 -20 0 -46 -7 -56 -15 -11 -8 -15 -15 -10 -15 6 0 11
-7 11 -15 0 -8 -3 -13 -5 -10 -6 5 -37 -35 -37 -47 0 -5 -4 -9 -10 -10 -5 -1
-18 -11 -27 -23 -9 -12 -47 -34 -84 -50 -37 -16 -76 -37 -86 -47 -10 -10 -26
-18 -37 -18 -10 0 -33 -3 -50 -6 -27 -6 -31 -4 -25 12 5 18 5 18 -6 1 -7 -11
-29 -34 -50 -53 -21 -19 -48 -59 -61 -89 -13 -30 -31 -55 -39 -56 -10 0 -11
-2 -2 -6 9 -4 8 -11 -5 -33 -14 -24 -18 -26 -30 -14 -8 8 -11 19 -7 25 4 8 0
8 -15 0 -11 -7 -21 -14 -21 -17 0 -3 5 -2 10 1 6 4 10 -6 10 -24 0 -36 -9 -63
-20 -56 -5 3 -7 -3 -5 -12 1 -10 -9 -34 -23 -53 -15 -19 -19 -29 -10 -22 24
19 27 5 15 -66 -10 -66 -26 -84 -56 -65 -12 7 -20 6 -29 -3 -11 -12 -9 -14 7
-14 11 0 26 -3 35 -6 13 -5 12 -10 -10 -26 -14 -11 -28 -18 -31 -14 -4 3 -1 6
5 6 7 0 12 6 12 13 0 6 -11 12 -24 12 -13 0 -23 -2 -21 -5 2 -3 -3 -16 -11
-30 l-15 -25 7 25 6 25 -26 -24 c-14 -14 -26 -30 -26 -38 0 -7 -3 -13 -7 -13
-5 0 -8 -15 -8 -34 0 -19 3 -32 8 -29 4 2 7 -1 7 -6 0 -21 -40 -11 -51 12 -11
25 3 77 21 77 5 0 10 7 10 15 0 8 11 22 25 31 14 9 23 19 20 22 -3 3 -14 -3
-25 -13 -17 -16 -20 -16 -20 -2 0 9 8 21 18 26 9 6 12 11 6 11 -16 0 -34 -22
-34 -44 0 -11 -8 -29 -19 -40 -22 -25 -36 -86 -19 -86 6 0 8 -3 5 -7 -11 -11
14 -32 30 -26 11 4 14 2 9 -5 -5 -8 0 -12 13 -12 22 0 36 -16 22 -24 -5 -4
-12 0 -14 6 -3 8 -6 5 -6 -6 -1 -13 4 -17 18 -13 15 4 19 0 18 -17 0 -11 -7
-30 -14 -41 -15 -22 -17 -93 -4 -114 5 -8 7 4 4 31 -3 25 -1 53 4 61 5 11 9
-3 10 -44 1 -38 -3 -62 -10 -64 -27 -8 -121 -14 -110 -7 8 5 -1 8 -20 8 -19 0
-48 10 -68 24 -31 22 -33 22 -15 2 25 -29 110 -56 176 -55 55 0 80 -12 80 -40
0 -8 -6 -20 -14 -27 -8 -6 -13 -17 -11 -23 6 -16 -47 -75 -62 -70 -9 3 -11 -4
-7 -26 4 -20 2 -31 -4 -31 -6 0 -9 -7 -5 -16 3 -8 12 -13 20 -10 8 4 11 1 7
-5 -3 -6 2 -29 12 -50 12 -29 20 -36 26 -27 6 8 7 4 3 -12 -4 -14 -11 -29 -16
-34 -4 -5 1 -20 11 -34 35 -44 20 -118 -16 -82 -7 7 -11 6 -11 -6 0 -8 11 -20
24 -25 21 -8 22 -11 12 -31 -11 -21 -11 -22 5 -8 16 13 20 12 32 -4 7 -11 11
-23 8 -27 -3 -5 1 -6 9 -3 19 7 28 -7 21 -34 -6 -20 -6 -20 -30 5 -13 14 -24
22 -24 18 0 -4 -8 -2 -17 5 -10 7 -3 -1 15 -19 17 -17 32 -36 32 -43 -1 -20
-27 -49 -47 -52 -10 -2 -17 -6 -15 -9 1 -4 2 -9 2 -12 0 -2 10 -1 23 4 15 6
29 5 40 -4 16 -11 14 -14 -20 -21 -21 -4 -41 -7 -44 -6 -4 1 -5 -8 -2 -18 3
-11 1 -20 -4 -20 -16 0 -54 46 -46 55 5 4 3 5 -4 2 -8 -5 -5 -19 10 -50 12
-23 20 -45 19 -50 -1 -4 1 -6 5 -5 5 1 18 -1 31 -6 30 -10 30 -51 1 -59 -15
-4 -20 -11 -16 -21 4 -9 2 -16 -3 -16 -6 0 -10 -4 -10 -8 0 -5 -18 -28 -40
-52 -55 -60 -61 -107 -24 -197 3 -7 -6 -15 -23 -19 -15 -4 -32 -10 -38 -14 -5
-4 -21 -10 -36 -13 -14 -4 -57 -30 -96 -59 -40 -29 -82 -60 -94 -68 -12 -8
-30 -23 -40 -32 -10 -9 -30 -25 -46 -35 -28 -18 -174 -132 -183 -144 -3 -3
-43 -27 -90 -52 -47 -26 -103 -61 -125 -77 -22 -16 -62 -41 -90 -55 -27 -14
-61 -32 -75 -40 -14 -8 -42 -22 -64 -31 -23 -11 -49 -33 -65 -58 -70 -108
-277 -271 -398 -313 -45 -16 -230 -130 -288 -177 -87 -71 -153 -147 -147 -168
1 -5 -1 -7 -6 -4 -23 14 -159 -300 -177 -409 -4 -22 -11 -53 -15 -70 -5 -16
-12 -48 -15 -70 -3 -22 -11 -71 -16 -110 -6 -38 -13 -169 -15 -291 -2 -121 -8
-240 -14 -265 -6 -24 -18 -84 -26 -132 -8 -49 -19 -97 -25 -108 -12 -23 -30
-121 -35 -194 -7 -102 -16 -161 -31 -203 -13 -36 -14 -47 -3 -67 10 -19 10
-30 0 -55 -7 -16 -10 -43 -7 -60 4 -16 2 -32 -3 -35 -6 -4 -8 -10 -5 -15 2 -4
-4 -19 -15 -32 -11 -14 -16 -29 -12 -33 4 -5 -1 -5 -10 -2 -21 7 -26 -18 -5
-26 8 -3 11 -21 9 -58 -2 -30 -3 -90 -4 -134 0 -44 -3 -84 -7 -90 -4 -5 -9
-30 -10 -55 -3 -62 -31 -183 -45 -192 -8 -5 -12 -254 -14 -903 l-3 -895 2891
0 2890 0 0 103 c0 120 -20 256 -78 552 -14 72 -27 148 -29 170 -2 22 -6 45 -7
50 -6 18 -9 30 -17 60 -44 170 -61 234 -87 315 -40 125 -60 183 -88 253 -28
69 -56 185 -48 198 3 5 0 9 -5 9 -6 0 -11 11 -11 25 0 14 -5 25 -10 25 -6 0
-9 3 -8 8 2 10 -20 84 -31 101 -6 9 -4 26 7 47 14 30 14 37 0 76 -9 24 -16 59
-18 78 -2 31 -4 54 -9 83 0 5 -6 5 -12 1 -8 -4 -9 3 -4 24 3 18 2 33 -4 37 -6
3 -11 16 -11 28 0 12 -7 40 -14 62 -10 27 -14 92 -15 205 0 91 -5 199 -11 240
-6 41 -10 162 -10 268 3 417 0 466 -28 525 -13 27 -21 55 -18 63 3 8 1 14 -3
14 -5 0 -7 9 -4 20 3 12 2 20 -3 19 -29 -5 -37 2 -19 15 16 11 17 17 7 29 -8
9 -10 26 -7 40 5 18 1 31 -13 45 -11 11 -18 23 -14 26 3 3 1 6 -4 6 -5 0 -10
9 -10 20 0 11 4 20 9 20 5 0 1 7 -7 16 -9 8 -16 18 -17 22 -1 4 -2 19 -3 35
-2 15 -12 37 -24 50 -11 12 -21 25 -22 29 -1 4 -9 26 -18 48 -12 27 -23 40
-37 40 -15 0 -17 2 -6 9 18 12 6 62 -13 55 -10 -4 -14 3 -12 25 1 17 -1 31 -6
31 -4 0 -8 7 -8 15 0 8 -4 15 -9 15 -5 0 -11 9 -14 21 -3 12 -10 18 -16 14 -6
-3 -11 2 -11 12 0 26 -16 47 -29 39 -8 -5 -6 -12 4 -23 9 -8 13 -18 10 -21 -3
-4 -9 -2 -13 4 -4 6 -20 10 -35 10 -16 -1 -31 3 -34 9 -4 5 -3 7 2 3 4 -4 20
-1 36 7 22 12 27 21 27 47 -1 18 -10 47 -21 65 -21 36 -32 43 -22 14 3 -10 -1
-23 -9 -30 -12 -10 -13 -8 -9 10 5 19 4 20 -16 10 -24 -13 -29 0 -7 18 11 10
12 19 4 42 -5 16 -14 29 -19 29 -4 0 -6 6 -3 14 3 7 -2 20 -10 29 -8 8 -12 17
-9 21 4 3 -1 6 -10 6 -8 0 -18 6 -21 13 -3 6 -3 1 0 -12 7 -25 6 -25 -19 3
-15 16 -29 37 -32 47 -4 11 -11 19 -16 19 -5 0 -8 3 -7 8 1 4 -3 17 -10 30 -7
12 -10 27 -7 32 3 6 -2 10 -12 11 -10 0 -13 3 -5 6 19 7 14 29 -13 61 l-24 29
22 -1 c34 -3 47 11 36 40 -12 32 -11 37 1 29 12 -8 13 5 0 25 -6 9 -5 17 3 22
8 5 7 8 -5 9 -35 3 -38 4 -36 14 2 6 6 9 10 8 18 -6 6 20 -22 50 -16 18 -30
27 -30 21 0 -19 -43 -24 -66 -9 -20 13 -22 12 -27 -6 -6 -20 29 -63 44 -53 4
2 11 -1 15 -7 5 -8 3 -9 -6 -4 -8 5 -11 3 -8 -5 7 -23 37 -37 47 -21 11 16 19
3 15 -24 -1 -11 2 -23 9 -28 8 -6 6 -7 -5 -3 -10 3 -18 2 -18 -3 0 -5 12 -12
27 -16 21 -5 24 -8 13 -15 -9 -6 -17 -5 -21 2 -4 6 -12 7 -18 4 -6 -4 -9 -12
-6 -17 4 -5 -1 -9 -9 -9 -19 0 -21 16 -3 23 14 5 16 34 4 54 -4 6 -17 9 -30 6
-18 -4 -20 -3 -7 7 13 10 12 11 -3 6 -10 -3 -23 -6 -28 -6 -6 0 -7 -9 -4 -21
6 -19 4 -21 -15 -16 -17 4 -20 3 -11 -6 15 -15 14 -27 -3 -21 -8 3 -13 13 -11
22 2 9 4 21 4 25 1 5 5 6 10 3 15 -10 21 22 6 34 -10 8 -20 4 -43 -20 -18 -17
-33 -26 -37 -20 -10 17 -28 11 -21 -6 5 -13 4 -14 -7 -6 -8 7 -16 11 -18 9 -2
-1 2 4 10 11 8 6 20 12 25 12 6 0 5 4 -2 9 -10 6 -7 12 12 25 24 15 26 15 26
0 0 -8 6 -14 13 -12 15 6 16 33 0 33 -6 0 -15 3 -19 7 -10 11 10 10 42 -2 23
-9 25 -9 15 4 -7 8 -10 20 -6 25 4 7 -1 8 -12 4 -12 -4 -10 1 7 15 19 17 22
24 12 30 -11 7 -11 12 2 24 8 9 14 17 12 19 -2 2 -6 16 -10 32 -5 21 -3 27 10
27 11 0 14 5 9 18 -4 9 -9 26 -11 37 -12 61 -17 74 -34 92 -10 11 -30 43 -44
70 -23 46 -71 92 -83 79 -3 -3 -27 -71 -54 -152 -32 -95 -47 -154 -42 -168 20
-63 -13 -283 -54 -353 -14 -25 -20 -43 -13 -43 6 0 8 -4 5 -10 -14 -23 9 -7
53 35 25 25 40 45 33 45 -9 0 -8 4 3 15 19 20 27 19 20 -2 -5 -17 -5 -17 6 0
6 9 16 17 23 17 7 0 18 9 25 20 7 11 18 20 25 19 8 0 8 -2 1 -5 -7 -3 -10 -15
-8 -27 4 -20 4 -20 -4 -3 -8 19 -9 19 -14 -1 -4 -17 0 -23 19 -28 13 -3 28 -3
34 0 15 10 49 -5 49 -21 0 -19 -10 -18 -26 4 -10 14 -15 15 -25 5 -7 -7 -8
-13 -3 -13 16 0 8 -81 -14 -138 -11 -29 -15 -49 -8 -43 15 12 41 -2 32 -18 -4
-6 -14 -11 -22 -11 -8 0 -19 -12 -24 -26 -6 -14 -23 -45 -38 -68 -102 -150
-94 -132 -89 -215 3 -42 8 -88 12 -103 6 -22 4 -28 -10 -28 -15 0 -16 -10 -10
-92 6 -84 6 -91 -8 -73 -8 10 -13 26 -10 35 4 11 3 12 -4 2 -7 -9 -30 14 -86
85 -41 54 -107 132 -146 173 -39 41 -69 80 -67 86 3 6 0 31 -5 54 -8 33 -7 45
3 51 25 16 40 9 103 -52 37 -35 66 -56 70 -50 12 20 35 12 35 -13 0 -14 3 -27
8 -30 4 -2 6 13 4 35 -3 24 0 39 7 39 6 0 11 -14 11 -32 0 -24 3 -29 12 -20 6
6 11 25 11 42 0 17 3 26 7 20 4 -6 11 5 17 25 10 33 9 36 -23 65 -43 37 -35
39 12 4 19 -15 34 -32 34 -40 0 -8 6 -11 16 -7 8 3 13 11 10 19 -3 7 2 18 10
24 8 7 14 18 13 24 0 7 -3 6 -6 -2 -2 -7 -14 -17 -25 -23 -18 -10 -19 -8 -13
11 6 19 4 21 -15 15 -20 -6 -21 -5 -10 15 10 18 18 21 51 17 36 -4 39 -3 34
17 -5 15 -4 17 3 7 11 -16 48 -7 56 14 7 19 -3 19 -24 0 -16 -15 -17 -13 -16
19 0 19 4 32 7 30 4 -2 10 3 13 12 3 8 2 12 -4 9 -5 -3 -7 13 -3 41 4 33 2 45
-6 40 -6 -4 -11 -21 -11 -38 0 -32 -3 -32 -55 -13 -16 7 -18 6 -7 -6 6 -7 12
-24 11 -39 -1 -27 -3 -24 -24 38 -6 17 -16 22 -44 24 -20 0 -49 2 -64 3 -15 1
-30 -2 -34 -8 -4 -6 4 -7 20 -3 22 5 29 2 42 -25 14 -27 76 -66 97 -61 13 3
29 -36 18 -43 -5 -3 -10 4 -10 15 0 21 -2 20 -29 -9 -16 -17 -36 -31 -44 -31
-11 0 -6 10 15 30 33 34 32 48 -2 30 -12 -6 -19 -17 -16 -25 3 -9 -6 -13 -31
-13 l-35 0 28 19 c16 10 25 19 19 20 -5 0 -1 4 10 9 19 8 19 9 -3 9 -12 1 -25
-5 -28 -12 -3 -8 -10 -14 -17 -15 -7 0 -23 -4 -36 -8 -22 -7 -23 -6 -10 8 7 9
17 14 22 11 4 -2 7 1 7 7 0 6 5 8 12 4 6 -4 8 -3 4 4 -6 11 -77 15 -108 6 -16
-5 -15 -8 4 -45 11 -23 30 -44 41 -48 12 -5 16 -10 10 -14 -21 -13 -38 3 -72
66 -36 67 -59 97 -73 97 -11 0 6 -32 28 -54 8 -9 11 -16 6 -16 -13 0 -43 47
-48 76 -4 23 -3 24 63 25 71 0 169 12 177 20 12 11 -8 49 -25 49 -10 0 -21 5
-24 10 -4 6 -10 8 -15 5 -5 -3 -11 -1 -15 5 -3 5 -18 11 -33 11 -24 2 -24 2
-4 6 24 5 29 18 10 29 -7 4 -8 3 -4 -4 5 -8 2 -10 -8 -6 -9 3 -13 11 -9 17 4
6 0 8 -10 4 -9 -3 -19 -2 -22 3 -4 6 0 10 7 11 7 0 3 4 -9 9 -13 5 -23 15 -23
22 -1 9 -5 7 -13 -4 -9 -11 -18 -14 -28 -7 -12 7 -12 9 1 9 10 1 5 9 -14 24
-16 14 -34 23 -40 22 -6 -2 -8 -1 -3 1 19 11 4 21 -28 18 -37 -4 -57 11 -30
22 10 3 21 0 26 -8 7 -11 9 -11 9 4 0 9 -4 17 -10 17 -5 0 -10 5 -10 10 0 6 7
10 15 10 8 0 15 -4 15 -10 0 -5 11 -10 25 -10 28 0 34 15 9 24 -8 3 -13 10
-10 15 3 5 -1 11 -9 15 -8 3 -15 1 -15 -4 0 -5 -9 -2 -20 7 -11 10 -20 21 -20
26 0 17 -31 39 -46 33 -12 -4 -15 -2 -10 9 3 8 1 15 -5 15 -5 0 -21 12 -35 28
-14 15 -22 20 -18 12 4 -8 -3 -5 -15 8 -12 12 -26 22 -32 22 -6 0 -8 4 -4 9 3
5 -7 16 -22 24 -65 33 -93 53 -98 68 -3 9 -13 16 -23 15 -12 -1 -16 5 -14 18
3 18 2 18 -14 5 -10 -7 -15 -9 -12 -4 4 6 -6 19 -22 30 -15 10 -35 31 -44 46
-9 15 -25 31 -36 34 -11 4 -23 21 -29 42 -11 39 -37 73 -56 73 -13 0 -27 23
-31 50 -1 8 -4 22 -6 30 -3 8 -3 11 0 7 2 -5 11 1 19 12 13 19 16 20 30 5 13
-12 18 -13 24 -3 4 8 3 16 -3 20 -7 4 -7 9 1 13 6 4 15 -3 20 -16 9 -21 10
-21 11 -3 1 15 3 16 7 5 9 -22 27 -37 39 -33 6 2 19 -6 29 -17 10 -11 24 -20
30 -20 7 0 15 -6 18 -14 3 -7 23 -16 45 -19 22 -4 45 -14 52 -22 7 -8 18 -15
25 -15 8 0 15 -5 17 -10 2 -6 25 -13 52 -15 27 -3 57 -12 66 -20 9 -8 21 -15
27 -15 5 0 18 -9 27 -19 10 -11 24 -17 32 -14 8 3 16 -5 20 -22 5 -20 9 -23
15 -13 6 9 9 9 9 1 0 -6 -5 -15 -11 -18 -6 -4 -8 -13 -6 -19 4 -9 -3 -11 -21
-8 -25 5 -26 4 -11 -14 8 -10 14 -29 13 -42 -1 -12 3 -25 7 -28 5 -3 9 1 9 9
0 18 32 27 54 15 11 -6 16 -5 16 4 0 9 3 9 10 -2 8 -13 11 -13 19 -1 5 7 14
11 19 7 6 -4 20 -1 31 5 15 10 22 9 36 -4 9 -9 22 -17 28 -17 7 0 6 4 -3 10
-13 9 -13 11 0 21 13 9 12 10 -2 5 -12 -3 -18 0 -18 10 0 8 5 12 10 9 6 -3 10
-1 10 5 0 7 7 10 15 6 9 -3 15 0 15 10 0 8 5 12 10 9 13 -8 40 19 40 40 0 9
12 27 26 40 15 14 23 25 18 25 -5 0 -1 5 9 11 23 13 22 29 -3 29 -13 0 -18 5
-14 15 8 20 45 30 54 14 7 -10 12 -10 26 2 13 10 18 11 21 2 4 -11 28 12 72
70 14 17 13 17 -20 0 -18 -10 -41 -26 -50 -35 -9 -10 -27 -17 -40 -17 -21 1
-21 2 -4 6 19 5 34 20 35 34 0 3 -11 4 -25 1 -14 -2 -25 -8 -25 -13 0 -5 -11
-7 -25 -3 -14 3 -43 7 -65 7 -22 0 -40 3 -40 6 0 3 -11 7 -25 8 -45 4 -55 6
-55 13 0 4 -13 13 -30 20 -16 7 -27 16 -24 21 3 5 -7 9 -21 9 -24 0 -25 1 -11
16 9 8 16 18 16 22 0 3 -5 1 -12 -6 -16 -16 -31 -15 -22 1 5 7 0 6 -11 -3 -11
-9 -16 -10 -11 -2 4 6 2 12 -3 12 -6 0 -11 -7 -11 -16 0 -13 -3 -14 -14 -5
-11 9 -15 9 -19 -1 -3 -7 -6 1 -6 17 -1 23 -4 27 -11 15 -8 -13 -10 -12 -10 3
0 9 -7 17 -15 17 -8 0 -15 5 -15 11 0 6 -9 8 -20 4 -15 -5 -18 -3 -14 9 4 11
0 16 -11 16 -18 0 -45 23 -45 39 0 6 -7 8 -15 5 -10 -4 -15 0 -16 12 0 11 -3
14 -6 7 -7 -18 -33 -16 -33 1 0 10 -10 13 -32 11 -18 -2 -25 -1 -15 1 9 3 17
13 17 22 0 15 -2 15 -11 2 -8 -11 -9 -8 -5 15 5 24 4 27 -4 12 -6 -9 -16 -15
-21 -11 -6 3 -5 12 3 21 11 14 10 15 -10 9 -17 -6 -21 -4 -16 8 3 9 1 16 -5
16 -6 0 -11 -5 -11 -11 0 -5 -4 -7 -10 -4 -5 3 -10 0 -10 -7 0 -9 -3 -9 -10 2
-14 22 -12 33 6 26 10 -4 13 -2 8 6 -19 30 -40 48 -56 48 -20 0 -25 20 -5 21
6 0 0 6 -14 12 -37 17 -60 43 -53 61 3 9 1 16 -4 16 -6 0 -13 8 -15 18 -2 9
-3 7 -2 -5 3 -27 -1 -28 -21 -9 -16 16 -19 40 -4 31 6 -3 10 -2 10 4 0 5 6 11
13 14 6 2 1 2 -12 0 -21 -4 -23 -2 -12 11 10 11 9 15 -1 19 -7 2 -1 2 15 0 23
-4 27 -1 27 21 0 18 6 26 18 27 14 0 14 2 -3 9 l-20 9 20 1 20 1 -20 9 c-11 5
-14 9 -7 9 16 1 15 42 -3 65 -8 11 -15 26 -15 33 0 7 -13 27 -30 45 -16 17
-30 40 -30 50 0 11 -5 16 -11 13 -6 -4 -13 2 -16 14 -3 11 -9 19 -12 16 -4 -2
-8 2 -8 10 0 8 5 15 11 15 7 0 6 4 -1 8 -10 6 -10 20 2 66 8 31 15 70 15 86 0
16 5 32 10 35 6 3 10 17 10 31 0 32 25 80 45 88 17 6 67 -13 60 -24 -2 -4 8
-13 23 -21 15 -8 32 -20 38 -28 9 -11 32 -14 95 -12 45 1 86 4 90 7 14 8 88
-8 86 -19 -3 -14 40 -12 81 3 27 10 33 17 28 34 -4 14 1 26 15 37 18 13 19 20
10 36 -9 18 -6 25 21 47 18 15 26 26 17 26 -12 0 -12 2 0 9 10 6 12 21 9 48
-6 40 9 73 31 73 6 0 11 5 11 11 0 5 5 7 12 3 6 -4 8 -3 4 4 -3 6 -2 14 4 17
8 5 8 11 0 20 -6 7 -8 20 -4 28 5 13 1 15 -23 8 -83 -24 -292 -20 -300 5 -2 7
17 19 42 27 25 9 67 30 92 48 26 17 56 32 68 34 11 1 39 8 63 14 23 7 46 10
50 7 4 -2 27 4 51 15 58 26 65 17 9 -12 -41 -22 -42 -23 -18 -29 18 -4 32 0
50 17 39 36 57 27 51 -24 -1 -7 3 -13 9 -13 6 0 8 -5 5 -10 -3 -6 1 -17 9 -26
9 -9 16 -11 16 -4 0 6 5 8 11 4 6 -3 25 4 41 16 22 16 32 19 38 11 9 -16 110
-20 110 -5 0 6 18 17 41 24 22 8 46 22 53 32 8 10 24 21 36 23 28 5 25 2 54
58 l23 47 22 -50 c12 -28 23 -67 26 -88 2 -20 11 -64 19 -97 9 -32 16 -65 16
-72 0 -18 -15 -16 -35 3 -23 23 -119 11 -139 -18 -11 -16 -18 -18 -34 -9 -27
15 -124 14 -157 -1 -18 -8 -24 -17 -19 -30 4 -13 -2 -21 -20 -30 -14 -6 -26
-16 -26 -22 0 -6 -11 -23 -25 -38 -31 -33 -31 -53 -4 -98 20 -31 23 -33 29
-15 6 18 7 18 16 2 6 -10 19 -19 31 -21 16 -3 20 0 16 14 -3 11 7 31 26 51
l30 34 1 -30 c1 -61 9 -72 57 -79 67 -9 101 30 83 93 -8 30 -8 30 13 20 12 -6
34 -23 48 -36 15 -14 29 -20 33 -15 3 6 15 8 27 5 12 -4 25 0 30 8 13 20 12
24 -15 56 -13 15 -26 37 -30 48 -5 18 -1 20 39 22 33 1 45 -2 45 -13 0 -8 6
-14 14 -14 15 0 13 28 -6 67 -14 29 -7 45 13 30 11 -8 18 -33 22 -67 2 -30 9
-77 15 -105 33 -150 45 -268 38 -373 -3 -59 -10 -181 -15 -272 -10 -185 -23
-270 -51 -335 -17 -40 -17 -44 -2 -51 9 -4 20 -6 25 -6 4 1 6 -1 6 -5 -3 -20
2 -31 19 -37 82 -30 93 -26 36 13 -19 13 -40 33 -46 44 -9 18 -7 19 34 14 25
-3 55 0 73 8 28 12 27 13 -26 8 -44 -4 -62 -2 -80 12 l-24 17 23 -5 c22 -5 23
-4 8 12 -20 22 -20 32 2 70 18 32 63 58 81 46 6 -3 11 -2 11 3 0 5 11 7 25 4
75 -14 178 136 142 208 -11 21 -12 30 -3 34 6 2 4 5 -5 5 -12 1 -15 8 -11 26
5 29 28 34 35 8 4 -14 5 -13 6 4 0 12 -5 28 -11 35 -16 17 -19 30 -24 98 -9
121 -12 194 -7 207 9 22 21 15 28 -16 4 -19 11 -28 19 -25 8 3 22 -5 32 -18
29 -36 45 -43 31 -14 -7 13 -14 23 -18 21 -3 -2 -13 9 -22 25 -19 32 -7 49 17
24 15 -14 16 -13 16 11 0 14 -4 24 -9 21 -4 -3 -6 6 -3 21 4 19 2 24 -7 18 -9
-5 -12 0 -9 16 1 12 9 24 17 27 9 3 11 0 6 -8 -5 -9 -4 -11 4 -6 9 6 9 11 -1
23 -10 12 -9 18 6 28 14 11 15 17 7 34 -15 26 -14 36 2 23 8 -7 17 -6 30 3 18
13 18 15 -1 52 -19 37 -19 69 -1 57 5 -3 9 2 9 11 0 9 -4 13 -10 10 -6 -4 -10
30 -10 94 0 56 -4 103 -10 106 -18 11 -10 25 14 25 23 0 24 -3 21 -40 -2 -22
1 -40 6 -40 5 0 9 9 9 20 0 11 5 20 12 20 6 0 8 3 5 6 -3 4 -2 15 3 25 7 12 7
20 0 24 -5 3 -10 15 -10 25 0 10 -4 22 -10 25 -5 3 -8 0 -5 -7 7 -19 -8 -37
-30 -39 -46 -5 -67 2 -72 21 -3 11 -9 20 -12 20 -4 0 -6 14 -3 30 2 17 0 30
-6 30 -13 0 -42 28 -42 40 0 16 29 -1 32 -18 3 -13 5 -12 10 6 3 12 3 20 -2
17 -4 -3 -13 2 -20 10 -7 8 -17 12 -23 8 -6 -4 -8 0 -4 11 4 9 3 15 -1 13 -4
-3 -18 7 -32 21 -14 13 -19 21 -11 17 9 -5 12 -4 7 3 -4 7 -13 12 -21 12 -11
0 -25 20 -25 36 0 2 12 -3 28 -13 l27 -17 -20 23 c-19 22 -19 23 0 37 10 8 14
14 9 14 -6 0 -15 -5 -22 -12 -9 -9 -17 0 -33 38 -12 27 -30 59 -41 70 -11 12
-21 30 -23 40 -1 11 -8 18 -15 16 -6 -1 -9 2 -5 7 3 6 -1 21 -9 34 -13 20 -14
26 -2 43 16 22 5 61 -19 70 -8 4 -15 10 -15 15 0 4 8 5 17 2 12 -5 11 -1 -5
15 -12 12 -22 28 -22 35 0 7 -7 22 -15 33 -14 18 -15 17 -5 -8 6 -18 6 -29 -1
-33 -5 -4 -7 -11 -3 -16 3 -5 10 -7 15 -4 5 3 6 -1 3 -9 -3 -9 -8 -16 -10 -16
-1 0 -19 25 -40 55 -30 46 -39 53 -51 44 -11 -10 -19 -7 -39 14 -14 15 -21 27
-17 27 4 0 -3 6 -16 13 -14 6 -26 18 -29 26 -3 8 0 11 7 7 6 -4 11 -2 11 3 0
6 -15 11 -32 12 -45 1 -59 8 -113 53 -33 28 -44 44 -40 58 5 14 1 18 -15 18
-13 0 -19 4 -14 12 4 6 3 8 -4 4 -6 -3 -13 -2 -17 4 -3 5 -24 10 -46 10 -21 0
-39 4 -39 8 0 8 -69 1 -120 -13 l-25 -6 25 15 c14 8 39 16 55 16 23 0 27 3 15
10 -8 5 -23 7 -34 4 -12 -4 -16 -2 -12 5 4 6 13 11 20 11 7 0 13 7 13 15 0 20
-4 19 -57 -16z m-130 -19 c0 -5 -2 -10 -4 -10 -3 0 -8 5 -11 10 -3 6 -1 10 4
10 6 0 11 -4 11 -10z m-390 -24 c0 -2 -8 -10 -17 -17 -16 -13 -17 -12 -4 4 13
16 21 21 21 13z m-215 -56 c-3 -5 -10 -10 -16 -10 -5 0 -9 5 -9 10 0 6 7 10
16 10 8 0 12 -4 9 -10z m975 6 c0 -11 -19 -15 -25 -6 -3 5 1 10 9 10 9 0 16
-2 16 -4z m-1013 -73 c-9 -9 -20 -13 -24 -9 -4 4 -1 11 7 16 25 16 35 11 17
-7z m637 -19 c3 -8 2 -12 -4 -9 -6 3 -10 10 -10 16 0 14 7 11 14 -7z m-19 -44
c-3 -5 -16 -15 -28 -21 -19 -9 -19 -8 3 10 28 23 34 26 25 11z m370 -50 c3 -5
2 -10 -4 -10 -5 0 -13 5 -16 10 -3 6 -2 10 4 10 5 0 13 -4 16 -10z m-126 -64
c-2 -2 -13 8 -23 22 l-19 27 24 -22 c12 -12 21 -24 18 -27z m405 8 c3 -8 2
-12 -4 -9 -6 3 -10 10 -10 16 0 14 7 11 14 -7z m-437 -66 c-3 -8 -6 -5 -6 6
-1 11 2 17 5 13 3 -3 4 -12 1 -19z m331 -13 c-3 -3 -9 2 -12 12 -6 14 -5 15 5
6 7 -7 10 -15 7 -18z m14 -29 c7 4 8 2 4 -5 -9 -13 -26 -5 -25 12 0 9 2 8 6
-1 2 -6 10 -9 15 -6z m205 -8 c-3 -8 -6 -5 -6 6 -1 11 2 17 5 13 3 -3 4 -12 1
-19z m63 -3 c0 -20 -38 -57 -51 -49 -6 4 -6 11 2 20 6 8 8 14 3 14 -11 1 27
30 38 30 4 0 8 -7 8 -15z m-273 -117 c-2 -13 -4 -5 -4 17 -1 22 1 32 4 23 2
-10 2 -28 0 -40z m263 42 c0 -5 -8 -10 -17 -10 -15 0 -16 2 -3 10 19 12 20 12
20 0z m-25 -100 c4 -8 -8 -2 -24 14 -17 17 -31 31 -31 33 0 9 50 -34 55 -47z
m-85 24 c0 -8 -4 -12 -10 -9 -5 3 -10 10 -10 16 0 5 5 9 10 9 6 0 10 -7 10
-16z m124 -34 c-6 -5 -24 21 -24 34 0 6 6 1 14 -10 8 -10 12 -21 10 -24z
m-730 1 c2 -3 7 -23 11 -44 6 -31 4 -37 -9 -37 -10 0 -15 -4 -12 -9 4 -5 0
-11 -6 -14 -16 -5 -70 49 -92 91 l-16 31 33 3 c32 3 83 -8 91 -21z m732 -35
c12 -13 11 -15 -8 -13 -13 1 -29 7 -36 14 -11 11 -10 13 8 13 12 0 28 -6 36
-14z m-890 -33 c-7 -7 -26 7 -26 19 0 6 6 6 15 -2 9 -7 13 -15 11 -17z m437
-9 c26 -31 27 -37 15 -56 -16 -24 -68 -34 -68 -13 0 7 7 20 15 28 13 13 13 16
0 21 -22 8 -18 56 4 56 3 0 19 -16 34 -36z m407 16 c0 -5 -7 -7 -15 -4 -8 4
-15 8 -15 10 0 2 7 4 15 4 8 0 15 -4 15 -10z m134 -16 c5 -14 4 -15 -9 -4 -17
14 -19 20 -6 20 5 0 12 -7 15 -16z m-1144 -28 c0 -2 -7 -7 -16 -10 -8 -3 -12
-2 -9 4 6 10 25 14 25 6z m695 -15 c3 -5 1 -12 -5 -16 -5 -3 -10 1 -10 9 0 18
6 21 15 7z m-660 -20 c3 -10 2 -26 -1 -36 -6 -14 -3 -16 13 -11 17 6 19 3 15
-26 -3 -18 -14 -44 -25 -58 -15 -19 -18 -20 -13 -6 4 11 2 22 -5 26 -8 6 -8
13 0 29 7 13 8 21 2 21 -6 0 -8 7 -5 15 4 9 -3 23 -15 34 -16 14 -18 21 -9 24
25 10 37 7 43 -12z m33 -26 c-3 -3 -9 2 -12 12 -6 14 -5 15 5 6 7 -7 10 -15 7
-18z m612 -4 c0 -4 -11 -25 -25 -45 l-24 -36 22 -1 c14 -1 9 -4 -13 -8 -19 -4
-45 -11 -56 -15 -14 -4 -27 -1 -37 9 -9 8 -28 16 -44 16 -23 2 -24 2 -5 6 12
2 22 10 22 18 0 13 48 31 57 21 3 -2 -4 -11 -16 -18 -12 -7 -21 -17 -21 -21 0
-16 46 6 90 44 49 42 50 43 50 30z m-297 -36 c-3 -9 -8 -14 -10 -11 -3 3 -2 9
2 15 9 16 15 13 8 -4z m-322 -72 c-11 -21 -20 -33 -21 -26 0 13 33 73 38 68 2
-2 -6 -20 -17 -42z m1029 18 c0 -14 -42 -21 -59 -10 -13 8 -12 9 6 4 12 -3 24
-1 28 5 8 12 25 13 25 1z m-540 -42 c0 -10 -12 -11 -34 -3 -25 10 -19 22 9 16
14 -2 25 -8 25 -13z m-250 -56 c0 -8 -4 -12 -9 -8 -5 3 -12 1 -16 -5 -8 -13
-62 -13 -70 0 -4 6 -14 2 -24 -11 -9 -12 -24 -20 -34 -18 -15 4 -14 6 2 28 15
20 28 24 65 24 25 0 46 4 46 8 0 4 9 5 20 2 11 -3 20 -12 20 -20z m1047 -69
c-3 -3 -12 -4 -19 -1 -8 3 -5 6 6 6 11 1 17 -2 13 -5z m-440 -36 c-3 -8 -6 -5
-6 6 -1 11 2 17 5 13 3 -3 4 -12 1 -19z m-2051 -25 c-15 -28 -15 -28 -13 -3 0
14 6 28 11 32 17 12 18 1 2 -29z m2498 20 c3 -10 8 -56 10 -102 l5 -84 -25 24
c-14 13 -30 31 -34 39 -7 13 1 85 15 128 6 18 23 15 29 -5z m-76 -38 c-3 -3
-9 2 -12 12 -6 14 -5 15 5 6 7 -7 10 -15 7 -18z m-1370 -42 c-3 -16 -21 -20
-61 -14 -17 2 20 30 41 31 17 0 23 -5 20 -17z m1369 -5 c-3 -8 -6 -5 -6 6 -1
11 2 17 5 13 3 -3 4 -12 1 -19z m-2421 -43 c-1 -29 -16 -35 -16 -7 0 16 8 32
16 32 1 0 1 -11 0 -25z m2409 -42 c-4 -50 -6 -52 -15 -23 -13 40 -11 60 4 60
11 0 14 -10 11 -37z m-2395 -3 c0 -5 -5 -10 -11 -10 -5 0 -7 5 -4 10 3 6 8 10
11 10 2 0 4 -4 4 -10z m2476 -48 c-3 -3 2 -11 12 -19 9 -8 12 -12 5 -9 -7 4
-9 -1 -5 -16 3 -14 2 -19 -6 -14 -7 4 -12 13 -12 21 0 7 -7 15 -15 19 -24 9
-19 35 5 29 12 -3 18 -8 16 -11z m-1507 -5 c-13 -13 -49 -18 -49 -6 0 7 22 16
48 18 10 1 10 -2 1 -12z m891 -97 c0 -5 -2 -10 -4 -10 -3 0 -8 5 -11 10 -3 6
-1 10 4 10 6 0 11 -4 11 -10z m-1790 -8 c0 -4 -9 -13 -20 -20 -23 -14 -26 -8
-7 13 13 16 27 19 27 7z m1111 -13 c39 -27 37 -52 -4 -67 -18 -7 -41 -12 -50
-12 -16 0 -16 2 -1 25 10 16 14 34 10 50 -8 31 6 32 45 4z m499 18 c0 -2 -10
-12 -22 -23 l-23 -19 19 23 c18 21 26 27 26 19z m110 -17 c0 -5 -4 -10 -10
-10 -5 0 -10 5 -10 10 0 6 5 10 10 10 6 0 10 -4 10 -10z m-730 -10 c0 -5 -5
-10 -11 -10 -5 0 -7 5 -4 10 3 6 8 10 11 10 2 0 4 -4 4 -10z m-73 -40 c8 -23
8 -30 0 -30 -25 0 -39 18 -32 39 9 29 19 26 32 -9z m838 11 c-3 -6 -15 -11
-26 -11 -11 0 -17 5 -14 10 4 6 10 8 15 5 5 -3 12 0 15 6 4 5 9 8 12 5 3 -2 2
-9 -2 -15z m630 -11 c3 -5 2 -10 -4 -10 -5 0 -13 5 -16 10 -3 6 -2 10 4 10 5
0 13 -4 16 -10z m-74 -44 c5 3 9 0 9 -6 0 -15 -23 -7 -26 8 -1 7 0 8 3 2 2 -5
9 -8 14 -4z m-1241 -16 c0 -5 -4 -10 -10 -10 -5 0 -10 5 -10 10 0 6 5 10 10
10 6 0 10 -4 10 -10z m1273 -37 c-7 -2 -19 -2 -25 0 -7 3 -2 5 12 5 14 0 19
-2 13 -5z m-89 -222 c15 -6 16 -9 5 -13 -8 -2 -25 1 -39 9 -22 11 -22 13 -5
12 11 0 29 -4 39 -8z m-2055 -108 c0 -25 -1 -25 -8 -8 -5 11 -7 23 -4 28 8 14
13 7 12 -20z m-200 -70 c-8 -9 -16 -10 -22 -4 -13 13 0 31 19 24 11 -4 12 -8
3 -20z m2180 -47 c-3 -3 -11 5 -18 17 -13 21 -12 21 5 5 10 -10 16 -20 13 -22z
m-23 -11 c1 -9 -3 -14 -9 -12 -6 2 -11 13 -12 25 -2 26 17 13 21 -13z m-2206
15 c0 -5 -5 -10 -11 -10 -5 0 -7 5 -4 10 3 6 8 10 11 10 2 0 4 -4 4 -10z m28
-77 c-7 -16 -16 -32 -21 -38 -7 -6 -7 -5 -2 5 4 8 -2 5 -14 -7 -25 -27 -37
-29 -44 -8 -7 16 8 29 23 20 6 -3 10 0 10 7 0 10 34 38 57 47 2 1 -3 -11 -9
-26z m35 -8 c-3 -9 -8 -14 -10 -11 -3 3 -2 9 2 15 9 16 15 13 8 -4z m2177
-105 c0 -5 -4 -10 -10 -10 -5 0 -10 5 -10 10 0 6 5 10 10 10 6 0 10 -4 10 -10z
m-2360 -181 c-9 -17 -9 -20 0 -14 8 5 11 3 8 -6 -3 -8 -10 -14 -15 -14 -6 0
-15 -4 -20 -8 -4 -5 -1 -7 7 -5 11 2 14 -4 12 -25 -3 -19 3 -34 18 -47 l22
-19 -22 2 c-30 2 -57 42 -41 61 7 9 8 17 3 20 -15 9 -2 79 16 94 14 11 18 11
20 -2 2 -8 -2 -25 -8 -37z m70 31 c-11 -21 -30 -19 -30 3 0 8 3 8 9 -1 7 -11
9 -11 14 2 4 9 9 16 12 16 3 0 1 -9 -5 -20z m36 -56 c-10 -9 -15 -23 -12 -31
3 -8 1 -11 -4 -8 -16 10 -11 43 7 54 24 13 29 5 9 -15z m-39 -24 c-3 -11 -1
-23 4 -26 15 -9 10 -24 -7 -24 -10 0 -14 6 -11 15 4 8 2 17 -3 20 -11 7 -2 35
12 35 6 0 8 -9 5 -20z m1936 -730 c-3 -12 -8 -19 -11 -16 -5 6 5 36 12 36 2 0
2 -9 -1 -20z m3 -106 c-4 -9 -9 -15 -11 -12 -3 3 -3 13 1 22 4 9 9 15 11 12 3
-3 3 -13 -1 -22z m-6 -36 c0 -13 -23 -5 -28 10 -2 7 2 10 12 6 9 -3 16 -11 16
-16z m134 -63 c-22 -16 -27 -14 -18 9 3 9 10 13 15 10 5 -3 9 1 10 8 0 11 2
11 6 0 3 -7 -3 -19 -13 -27z m-64 15 c0 -5 -2 -10 -4 -10 -3 0 -8 5 -11 10 -3
6 -1 10 4 10 6 0 11 -4 11 -10z m-760 -20 c0 -5 -2 -10 -4 -10 -3 0 -8 5 -11
10 -3 6 -1 10 4 10 6 0 11 -4 11 -10z m-73 -46 c-3 -3 -12 -4 -19 -1 -8 3 -5
6 6 6 11 1 17 -2 13 -5z m83 -4 c0 -5 -7 -7 -15 -4 -8 4 -15 8 -15 10 0 2 7 4
15 4 8 0 15 -4 15 -10z m58 -16 c2 -1 -8 -1 -21 0 -15 0 -23 6 -20 14 4 10 9
10 22 0 9 -7 17 -13 19 -14z m-124 -20 c20 -10 31 -44 15 -44 -5 0 -9 6 -9 14
0 8 -5 18 -12 22 -7 4 -8 3 -4 -4 4 -7 2 -10 -6 -7 -8 3 -15 15 -15 28 -1 12
1 17 5 12 4 -6 16 -15 26 -21z m139 1 c-3 -9 -8 -14 -10 -11 -3 3 -2 9 2 15 9
16 15 13 8 -4z m47 11 c0 -11 -19 -15 -25 -6 -3 5 1 10 9 10 9 0 16 -2 16 -4z
m570 -5 c0 -6 -4 -12 -8 -15 -5 -3 -9 1 -9 9 0 8 4 15 9 15 4 0 8 -4 8 -9z
m190 -12 c0 -4 -7 -6 -15 -3 -8 4 -15 10 -15 15 0 4 7 6 15 3 8 -4 15 -10 15
-15z m-80 1 c0 -5 -8 -10 -17 -10 -15 0 -16 2 -3 10 19 12 20 12 20 0z m-809
-13 c-8 -10 -6 -19 10 -35 11 -12 24 -22 29 -22 6 0 10 -5 10 -10 0 -6 -11 -8
-25 -6 -14 3 -25 0 -25 -6 0 -6 -9 0 -19 13 -11 13 -15 26 -10 27 5 2 9 9 9
16 0 7 5 17 12 24 16 16 23 15 9 -1z m152 -49 c12 18 25 15 37 -10 10 -20 9
-21 -2 -6 -9 10 -19 13 -28 8 -8 -4 -26 -3 -40 3 -21 8 -22 11 -7 14 9 3 18
12 18 21 1 9 4 4 8 -13 4 -20 9 -26 14 -17z m611 16 c-4 -20 -1 -25 10 -21 10
4 13 1 10 -8 -7 -18 -34 -8 -34 14 0 14 -2 14 -10 1 -6 -9 -10 -10 -10 -3 0
10 26 43 35 43 2 0 2 -12 -1 -26z m46 22 c0 -3 -4 -8 -10 -11 -5 -3 -10 -1
-10 4 0 6 5 11 10 11 6 0 10 -2 10 -4z m-727 -23 c-7 -3 -9 -12 -6 -21 5 -16
5 -16 -8 -1 -8 9 -21 20 -29 23 -8 3 -5 4 8 2 12 -2 22 0 22 6 0 5 5 6 12 2 9
-6 9 -9 1 -11z m-140 -11 c14 -15 15 -19 2 -19 -8 0 -12 4 -9 8 2 4 -4 12 -13
18 -10 6 -13 11 -7 11 6 0 18 -8 27 -18z m717 8 c0 -5 -8 -10 -17 -10 -15 0
-16 2 -3 10 19 12 20 12 20 0z m46 -2 c12 -19 12 -48 1 -55 -6 -3 -7 -1 -4 4
4 6 -2 13 -13 16 -12 3 -20 14 -20 26 0 23 24 29 36 9z m191 -10 c-3 -8 -6 -5
-6 6 -1 11 2 17 5 13 3 -3 4 -12 1 -19z m-717 -39 c0 -5 -4 -9 -8 -9 -5 0 -9
7 -9 15 0 8 4 12 9 9 4 -3 8 -9 8 -15z m649 0 c-16 -10 -23 -4 -14 10 3 6 11
8 17 5 6 -4 5 -9 -3 -15z m-698 -4 c0 -6 6 -17 12 -25 6 -8 0 -5 -14 8 -14 12
-28 20 -31 16 -3 -3 -9 -1 -12 4 -3 5 6 8 19 8 14 -1 26 -6 26 -11z m344 5
c-3 -5 -12 -10 -18 -10 -7 0 -6 4 3 10 19 12 23 12 15 0z m310 0 c11 -5 15 -9
8 -9 -7 -1 -10 -8 -6 -18 5 -14 1 -13 -16 4 -32 33 -27 41 14 23z m-716 -34
c-3 -3 -11 5 -18 17 -13 21 -12 21 5 5 10 -10 16 -20 13 -22z m146 24 c-3 -5
-12 -10 -18 -10 -7 0 -6 4 3 10 19 12 23 12 15 0z m-101 -26 c3 -8 2 -12 -4
-9 -6 3 -10 10 -10 16 0 14 7 11 14 -7z m643 1 c0 -8 -4 -12 -9 -9 -5 3 -6 10
-3 15 9 13 12 11 12 -6z m-2352 -55 c3 -5 0 -7 -8 -4 -8 3 -18 1 -22 -5 -3 -6
-11 -11 -18 -11 -6 0 -2 7 9 15 23 17 31 18 39 5z m2455 -22 c0 -5 -6 -8 -14
-8 -9 0 -12 7 -9 21 4 16 8 17 14 7 5 -7 9 -16 9 -20z m45 -16 c-8 -9 -35 20
-28 31 4 6 11 3 19 -8 8 -10 12 -21 9 -23z m-2495 12 c0 -3 -7 -12 -15 -20
-12 -13 -15 -13 -15 -1 0 7 3 17 7 20 8 8 23 9 23 1z m1330 -26 l23 -31 -25
19 c-14 10 -25 24 -25 31 0 17 0 18 27 -19z m673 18 c4 -10 1 -13 -8 -9 -8 3
-12 9 -9 14 7 12 11 11 17 -5z m-2131 -8 c-6 -6 -20 -12 -31 -13 -11 -1 -26
-7 -35 -14 -14 -11 -16 -11 -16 3 0 10 5 14 10 11 6 -3 10 -2 10 4 0 5 15 12
33 14 17 2 34 5 37 5 2 1 -1 -3 -8 -10z m79 -12 c5 3 9 0 9 -5 0 -6 -4 -11 -8
-11 -5 0 -15 -11 -22 -25 -7 -13 -17 -22 -22 -19 -5 4 0 15 11 25 11 11 19 25
17 32 -1 6 -1 9 1 4 3 -4 9 -5 14 -1z m2480 -3 c13 -16 12 -17 -3 -4 -17 13
-22 21 -14 21 2 0 10 -8 17 -17z m-2530 -2 c-8 -5 -10 -14 -6 -21 4 -7 2 -16
-6 -21 -9 -5 -10 -9 -2 -9 6 0 9 -8 6 -19 -3 -12 -11 -17 -24 -14 -27 7 -43
29 -28 39 7 4 9 3 6 -3 -4 -6 -1 -13 6 -16 7 -2 18 6 24 20 10 21 10 24 -4 18
-14 -5 -14 -3 2 15 10 11 23 20 29 20 6 0 5 -4 -3 -9z m140 -4 c-7 -7 -14 -8
-21 -1 -6 6 -2 10 12 11 16 2 18 -1 9 -10z m1246 -8 c2 -16 -1 -19 -9 -11 -5
5 -7 15 -4 21 10 15 12 14 13 -10z m806 -1 c9 -31 2 -33 -11 -3 -6 14 -8 25
-3 25 5 0 11 -10 14 -22z m-2233 8 c0 -2 -11 -11 -25 -20 -14 -9 -25 -13 -25
-8 0 5 10 14 23 20 27 13 27 13 27 8z m1455 -6 c3 -5 1 -10 -4 -10 -6 0 -11 5
-11 10 0 6 2 10 4 10 3 0 8 -4 11 -10z m-1175 -19 c0 -19 -34 -51 -53 -50 -21
0 -21 1 -2 8 19 8 19 8 -3 20 -12 6 -22 17 -22 23 0 6 11 1 24 -11 14 -13 26
-18 30 -12 4 5 2 12 -4 16 -15 9 -2 25 15 18 8 -3 15 -8 15 -12z m2282 7 c6
-16 -1 -38 -12 -38 -11 0 -21 30 -14 41 8 13 21 11 26 -3z m-1168 -13 c-4 -8
-11 -12 -16 -9 -6 4 -5 10 3 15 19 12 19 11 13 -6z m1126 -5 c9 -16 8 -18 -5
-14 -8 4 -15 12 -15 20 0 20 7 17 20 -6z m-1725 -8 c-3 -3 -11 0 -18 7 -9 10
-8 11 6 5 10 -3 15 -9 12 -12z m1219 9 c3 -5 -1 -12 -10 -15 -27 -11 -37 -7
-24 9 14 17 26 19 34 6z m476 -25 c-7 -7 -14 -6 -22 2 -10 10 -10 15 2 22 17
11 34 -10 20 -24z m-2360 14 c0 -5 -5 -10 -11 -10 -5 0 -7 5 -4 10 3 6 8 10
11 10 2 0 4 -4 4 -10z m803 -7 c-4 -10 -2 -14 4 -10 6 4 13 0 17 -8 3 -8 2
-15 -3 -15 -14 0 -33 28 -26 40 10 16 15 12 8 -7z m73 -14 c5 -8 1 -8 -13 0
-11 6 -22 8 -25 6 -3 -3 -5 2 -5 9 0 11 5 12 18 5 10 -5 21 -14 25 -20z m457
14 c20 -6 22 -19 5 -29 -7 -4 -9 -3 -5 1 4 5 -7 17 -25 28 -18 10 -24 15 -13
11 11 -3 28 -9 38 -11z m77 -19 c0 -8 -5 -14 -11 -14 -5 0 -7 -6 -3 -12 5 -8
1 -8 -12 2 -29 22 -30 24 -12 17 23 -8 33 10 16 31 -12 15 -11 16 5 3 9 -7 17
-20 17 -27z m890 22 c0 -9 -7 -12 -20 -9 -11 3 -20 9 -20 14 0 5 9 9 20 9 11
0 20 -6 20 -14z m157 -18 c-3 -7 -5 -2 -5 12 0 14 2 19 5 13 2 -7 2 -19 0 -25z
m53 22 c0 -5 -10 -10 -22 -9 -22 0 -22 1 -3 9 11 5 21 9 23 9 1 1 2 -3 2 -9z
m40 0 c0 -5 -8 -10 -17 -10 -15 0 -16 2 -3 10 19 12 20 12 20 0z m-2404 -28
c-17 -16 -18 -16 -5 5 7 12 15 20 18 17 3 -2 -3 -12 -13 -22z m1073 15 c8 -11
6 -13 -9 -12 -11 1 -23 5 -27 10 -5 4 -2 5 5 1 6 -4 12 -2 12 3 0 15 5 14 19
-2z m33 -30 c-9 -11 -7 -13 11 -13 15 1 27 -9 37 -30 l16 -31 27 21 c29 22 47
17 23 -7 -8 -8 -13 -17 -9 -20 3 -3 -7 -5 -22 -3 -20 2 -31 12 -42 37 -9 19
-17 29 -20 23 -2 -7 -12 -10 -23 -7 -15 4 -18 1 -13 -16 4 -17 2 -20 -11 -15
-9 3 -16 2 -16 -4 0 -15 30 -8 42 9 8 12 9 12 5 -1 -2 -8 2 -21 10 -28 7 -8
10 -19 6 -25 -4 -6 -10 -1 -16 14 -5 13 -11 19 -13 14 -6 -15 -98 -5 -107 11
-4 8 -13 14 -18 14 -6 0 -3 -7 6 -16 11 -12 13 -20 5 -29 -7 -9 -6 -16 5 -25
8 -7 15 -19 15 -27 0 -13 3 -13 18 -2 15 13 16 12 3 -4 -13 -16 -15 -16 -32
-1 -11 10 -17 19 -14 22 3 3 0 11 -6 18 -6 8 -9 21 -5 29 3 10 2 14 -5 9 -7
-4 -9 3 -7 17 2 15 9 23 19 21 9 -1 16 5 16 13 0 10 -6 13 -18 10 -9 -3 -21 0
-25 6 -5 9 4 10 36 5 28 -4 48 -2 58 6 14 11 14 9 -1 -14 -9 -15 -13 -30 -8
-33 5 -3 12 -1 16 4 3 6 13 7 22 4 11 -4 14 -3 9 6 -5 7 -15 10 -23 7 -8 -4
-11 -1 -8 5 4 6 13 8 20 5 8 -3 15 7 19 27 5 23 9 28 18 19 8 -8 8 -15 0 -25z
m-1212 7 c0 -2 -7 -4 -15 -4 -8 0 -15 4 -15 10 0 5 7 7 15 4 8 -4 15 -8 15
-10z m707 10 c-3 -3 -12 -4 -19 -1 -8 3 -5 6 6 6 11 1 17 -2 13 -5z m823 -2
c25 -11 23 -49 -3 -56 -16 -4 -19 -8 -9 -14 10 -7 10 -11 -2 -21 -11 -10 -20
-10 -37 -1 -16 9 -18 14 -9 20 7 4 10 12 6 18 -3 6 -1 14 5 18 8 5 8 9 -1 14
-30 19 14 38 50 22z m60 -23 c-9 -15 -7 -19 5 -19 8 0 15 7 15 15 0 9 6 12 15
9 11 -5 12 -11 4 -25 -5 -10 -6 -19 -2 -19 4 0 2 -5 -5 -12 -10 -10 -16 -7
-28 10 -8 12 -20 20 -25 17 -5 -4 -9 -1 -9 4 0 6 5 11 11 11 6 0 9 6 6 14 -6
16 2 28 14 20 5 -3 4 -14 -1 -25z m-1382 -11 c2 -17 -2 -25 -12 -25 -8 0 -13
4 -10 8 2 4 -1 9 -8 11 -7 3 -9 12 -5 22 10 24 31 15 35 -16z m652 12 c-7 -4
-21 -5 -33 -2 -15 4 -18 2 -12 -8 5 -8 4 -11 -3 -6 -5 3 -12 1 -14 -5 -2 -7
-10 -4 -18 7 -10 12 -11 15 -2 10 7 -4 18 -3 25 2 15 12 49 20 61 14 4 -2 3
-8 -4 -12z m51 3 c13 -15 12 -15 -8 -4 -24 12 -29 21 -14 21 5 0 15 -7 22 -17z
m106 2 c0 -18 -24 -28 -33 -13 -4 6 -3 8 3 5 6 -4 13 0 17 8 7 19 13 19 13 0z
m-1048 -9 c9 -11 9 -16 -1 -22 -7 -4 -10 -4 -6 1 4 4 0 14 -10 21 -9 7 -12 14
-6 14 6 0 17 -6 23 -14z m974 -1 c-3 -9 -8 -14 -10 -11 -3 3 -2 9 2 15 9 16
15 13 8 -4z m341 7 c3 -5 -1 -9 -9 -9 -8 0 -12 4 -9 9 3 4 7 8 9 8 2 0 6 -4 9
-8z m416 -26 c10 -13 10 -16 -4 -16 -10 0 -14 -5 -11 -11 5 -6 0 -6 -12 1 -24
16 -27 63 -3 50 9 -5 22 -16 30 -24z m-1793 18 c-3 -3 -12 -4 -19 -1 -8 3 -5
6 6 6 11 1 17 -2 13 -5z m144 -7 c-6 -8 -8 -17 -4 -20 3 -4 -1 -7 -11 -7 -10
0 -14 -5 -10 -11 4 -7 -2 -7 -17 1 -32 17 -32 17 -14 24 9 3 13 2 10 -4 -11
-18 12 -10 30 10 20 22 34 28 16 7z m99 3 c0 -5 -5 -10 -11 -10 -5 0 -7 5 -4
10 3 6 8 10 11 10 2 0 4 -4 4 -10z m610 -22 c0 -12 -12 -9 -32 6 -26 19 -22
27 7 14 14 -6 25 -15 25 -20z m555 22 c3 -5 1 -10 -4 -10 -6 0 -11 5 -11 10 0
6 2 10 4 10 3 0 8 -4 11 -10z m1271 -9 c0 -15 -4 -16 -17 -8 -19 12 -16 27 4
27 7 0 13 -8 13 -19z m-1711 -1 c-3 -5 -1 -10 4 -10 6 0 11 4 11 10 0 5 7 7
15 4 8 -4 12 -10 9 -15 -3 -5 -11 -6 -17 -3 -7 4 -8 3 -4 -2 5 -5 29 -17 55
-26 26 -9 39 -17 28 -17 -12 -1 -16 -6 -12 -16 3 -8 1 -15 -5 -15 -5 0 -7 -11
-3 -27 7 -25 6 -27 -9 -14 -9 7 -14 17 -11 22 3 5 0 9 -6 9 -7 0 -5 7 4 16 9
8 16 21 15 27 0 9 -2 8 -6 0 -2 -7 -12 -13 -20 -13 -13 0 -13 3 -2 16 11 14
10 15 -9 12 -11 -1 -21 1 -21 5 0 4 -10 17 -23 27 -20 17 -21 19 -5 20 10 0
15 -4 12 -10z m-1000 -10 c-5 -9 15 -15 38 -11 4 0 7 -3 7 -9 0 -13 -16 -13
-41 1 -17 8 -19 29 -3 29 3 0 2 -4 -1 -10z m1139 0 c-5 -4 -20 -10 -34 -14
-14 -3 -19 -3 -12 0 6 3 10 9 8 12 -2 4 7 8 21 9 14 0 21 -3 17 -7z m396 -10
c-8 -5 -9 -10 -2 -14 6 -4 8 -14 5 -22 -5 -15 -7 -15 -15 0 -11 20 -1 59 14
50 7 -4 6 -9 -2 -14z m-37 -17 c-3 -8 0 -18 6 -23 9 -5 6 -9 -8 -13 -12 -3
-19 -1 -16 3 3 5 1 11 -5 15 -5 3 -10 1 -10 -6 0 -7 -3 -9 -7 -5 -5 4 0 14 11
21 10 8 15 18 11 24 -3 7 0 8 9 5 8 -3 12 -12 9 -21z m-1231 7 c-15 -6 -21
-14 -16 -22 4 -7 4 -10 -1 -6 -4 4 -13 4 -19 -1 -7 -5 -18 -2 -29 9 -17 17
-17 17 9 12 16 -3 25 -1 21 4 -3 6 9 11 26 11 29 2 30 1 9 -7z m1442 -1 c-2
-4 4 -12 13 -18 17 -10 16 -11 -4 -17 -13 -3 -23 -10 -23 -15 0 -5 -4 -9 -10
-9 -5 0 -7 7 -4 15 5 13 2 14 -21 5 -14 -5 -33 -16 -41 -24 -14 -15 -50 -11
-60 6 -4 6 2 8 15 3 17 -5 20 -3 15 12 -4 16 -4 17 7 1 12 -15 15 -15 38 0 14
9 29 21 33 26 4 6 13 5 22 -3 10 -8 16 -9 16 -3 0 6 -8 15 -17 21 -16 9 -16
10 4 8 12 0 20 -4 17 -8z m-537 -5 c-3 -3 -12 -4 -19 -1 -8 3 -5 6 6 6 11 1
17 -2 13 -5z m600 -1 c-9 -2 -15 -9 -12 -14 4 -5 1 -9 -4 -9 -12 0 -14 13 -4
23 3 4 13 6 22 6 13 -1 12 -2 -2 -6z m-804 -24 c4 -15 2 -18 -7 -10 -7 6 -17
7 -22 3 -4 -4 -2 1 5 11 17 21 18 21 24 -4z m-843 -8 c-10 -19 -33 -22 -47 -6
-4 4 2 6 14 3 13 -4 24 0 27 8 3 8 8 14 11 14 3 0 1 -9 -5 -19z m1050 9 c0 -5
-5 -10 -11 -10 -5 0 -7 5 -4 10 3 6 8 10 11 10 2 0 4 -4 4 -10z m-246 -16 c3
-8 0 -11 -10 -7 -8 3 -14 -1 -14 -10 0 -9 -4 -18 -9 -22 -7 -4 -8 43 -2 51 6
6 31 -3 35 -12z m1479 7 c10 -1 -1 -21 -12 -21 -4 0 -16 6 -26 14 -18 13 -17
13 6 11 13 -1 28 -3 32 -4z m257 -1 c0 -5 -2 -10 -4 -10 -3 0 -8 5 -11 10 -3
6 -1 10 4 10 6 0 11 -4 11 -10z m-1523 -17 c0 -9 -7 -11 -20 -7 -15 5 -19 3
-14 -10 3 -8 2 -18 -3 -21 -13 -8 -18 18 -6 37 12 19 43 20 43 1z m120 -5 c-3
-8 -6 -5 -6 6 -1 11 2 17 5 13 3 -3 4 -12 1 -19z m163 12 c0 -5 -5 -10 -11
-10 -5 0 -7 5 -4 10 3 6 8 10 11 10 2 0 4 -4 4 -10z m26 -12 c-13 -7 -14 -14
-6 -31 10 -20 10 -20 -3 -4 -8 9 -20 17 -28 17 -11 0 -11 -2 1 -10 9 -6 10
-10 3 -10 -6 0 -15 5 -18 10 -4 6 -9 9 -13 6 -4 -2 -16 0 -27 5 -17 7 -15 8
10 7 38 -2 77 11 70 23 -3 5 1 6 11 2 15 -5 15 -7 0 -15z m1294 18 c0 -3 -4
-8 -10 -11 -5 -3 -10 -1 -10 4 0 6 5 11 10 11 6 0 10 -2 10 -4z m-2510 -17
c12 -9 12 -10 -4 -5 -13 5 -17 2 -12 -9 6 -17 0 -18 -29 -5 -18 8 -18 9 -2 9
10 1 15 6 12 11 -8 13 16 13 35 -1z m63 4 c-7 -2 -19 -2 -25 0 -7 3 -2 5 12 5
14 0 19 -2 13 -5z m886 -7 c9 -11 9 -16 -1 -22 -7 -4 -10 -4 -6 1 4 4 0 14
-10 21 -9 7 -12 14 -6 14 6 0 17 -6 23 -14z m361 -1 c0 -8 -2 -15 -4 -15 -2 0
-6 7 -10 15 -3 8 -1 15 4 15 6 0 10 -7 10 -15z m112 -7 c-7 -7 -12 -8 -12 -2
0 6 3 14 7 17 3 4 9 5 12 2 2 -3 -1 -11 -7 -17z m848 1 c0 -6 -4 -7 -10 -4 -5
3 -10 11 -10 16 0 6 5 7 10 4 6 -3 10 -11 10 -16z m-2205 -9 c3 -5 1 -10 -4
-10 -6 0 -11 5 -11 10 0 6 2 10 4 10 3 0 8 -4 11 -10z m2388 -4 c3 -8 -2 -20
-11 -28 -11 -9 -14 -10 -8 0 4 7 2 12 -4 12 -6 0 -9 4 -6 9 4 5 0 12 -6 14 -7
3 -3 6 8 6 12 1 24 -5 27 -13z m-2508 -5 c6 -1 3 -5 -5 -11 -8 -5 -11 -12 -7
-16 3 -4 12 -2 19 4 9 7 19 6 32 -4 11 -8 16 -14 10 -15 -49 -4 -71 -3 -68 3
3 4 -5 15 -16 26 l-21 19 23 -2 c13 -1 28 -3 33 -4z m96 -6 c19 -8 27 -14 19
-14 -14 0 -72 28 -59 29 4 0 22 -7 40 -15z m552 -10 c-7 -21 -12 -19 -10 4 0
11 5 18 9 15 4 -3 5 -11 1 -19z m47 10 c0 -2 -6 -5 -13 -8 -8 -3 -14 1 -14 8
0 7 6 11 14 8 7 -3 13 -6 13 -8z m285 5 c-3 -5 0 -10 9 -10 8 0 17 -6 19 -12
3 -7 6 -4 6 7 1 18 2 18 17 3 18 -17 11 -38 -12 -38 -20 0 -18 -8 11 -34 26
-24 34 -43 14 -30 -7 4 -21 8 -33 9 -11 1 -25 3 -31 4 -5 1 -3 6 5 12 12 9 11
10 -7 6 -13 -3 -23 -1 -23 4 0 5 -4 9 -10 9 -17 0 -11 -26 10 -45 25 -22 26
-39 3 -27 -10 5 -25 7 -33 4 -12 -4 -13 -3 -2 10 10 13 10 17 -2 21 -8 3 -16
-2 -19 -14 -3 -10 -2 -20 1 -20 4 -1 17 -3 30 -4 12 -1 25 -5 29 -9 3 -3 12
-1 20 5 10 9 11 15 2 26 -10 11 -9 12 5 7 20 -8 21 -33 1 -40 -8 -4 -15 -13
-15 -21 0 -8 -5 -11 -10 -8 -6 4 -8 11 -5 16 4 5 1 9 -5 9 -7 0 -10 -6 -7 -14
9 -23 -5 -27 -25 -9 -15 14 -19 14 -16 3 3 -16 -9 -17 -52 -4 -23 7 -24 6 -11
-10 8 -9 21 -14 30 -11 9 3 0 -8 -19 -25 -24 -21 -28 -29 -15 -25 15 5 17 3 8
-5 -7 -8 -17 -9 -28 -3 -15 9 -13 12 11 28 l28 18 -23 18 c-21 17 -21 18 -3
28 11 6 24 6 33 0 23 -14 32 -10 14 7 -13 13 -21 14 -40 6 -15 -7 -26 -8 -30
-2 -4 6 0 10 9 10 8 0 16 4 18 10 2 6 15 4 32 -5 16 -9 31 -13 34 -10 3 3 0 5
-7 5 -6 0 -11 8 -9 17 2 11 -5 19 -17 21 -16 2 -17 1 -5 -7 8 -6 10 -11 5 -11
-6 0 -19 10 -29 21 -18 21 -18 22 7 15 14 -3 29 -2 32 4 4 6 -1 7 -11 3 -12
-4 -15 -2 -12 8 3 8 12 13 20 11 10 -1 15 4 14 14 0 9 5 19 13 22 10 3 11 0 5
-9 -4 -8 -9 -21 -9 -31 -1 -14 2 -15 18 -6 11 6 15 13 10 17 -6 3 -7 15 -3 25
6 18 7 18 13 2 5 -12 13 -16 23 -12 14 5 15 4 4 -9 -10 -12 -10 -15 2 -15 19
0 18 41 -1 64 -11 14 -11 16 3 16 10 0 14 -4 11 -10z m1425 -5 c0 -9 -9 -15
-22 -14 -17 1 -19 2 -5 6 9 2 17 9 17 14 0 5 2 9 5 9 3 0 5 -7 5 -15z m23 0
c-3 -9 -8 -14 -10 -11 -3 3 -2 9 2 15 9 16 15 13 8 -4z m-1589 -10 c3 -8 1
-15 -4 -15 -6 0 -10 7 -10 15 0 8 2 15 4 15 2 0 6 -7 10 -15z m286 3 c0 -4 -4
-8 -9 -8 -6 0 -12 4 -15 8 -3 5 1 9 9 9 8 0 15 -4 15 -9z m54 1 c3 -3 -4 -5
-14 -6 -11 -1 -22 2 -24 6 -5 8 30 8 38 0z m1156 -5 c0 -2 -9 -4 -20 -4 -11 0
-20 4 -20 9 0 5 9 7 20 4 11 -3 20 -7 20 -9z m310 -13 c0 -4 -9 -7 -19 -7 -14
0 -17 4 -11 12 6 6 6 15 2 20 -4 4 1 2 11 -5 9 -7 17 -16 17 -20z m-1527 -22
c-7 -26 -23 -35 -18 -9 2 11 0 20 -6 20 -5 0 -9 4 -9 9 0 5 8 7 19 4 13 -3 17
-11 14 -24z m225 17 c-10 -7 -16 -15 -13 -18 3 -2 -2 -5 -10 -5 -8 0 -15 2
-15 3 0 8 33 34 43 34 7 0 4 -7 -5 -14z m-608 -6 c-8 -5 -19 -10 -25 -10 -5 0
-3 5 5 10 8 5 20 10 25 10 6 0 3 -5 -5 -10z m545 0 c13 -5 14 -9 5 -9 -8 0
-24 4 -35 9 -13 5 -14 9 -5 9 8 0 24 -4 35 -9z m1138 -10 c-4 -15 0 -20 13
-20 15 0 16 2 5 9 -7 5 -9 11 -4 14 6 4 16 -4 23 -17 9 -18 19 -23 39 -20 24
4 25 3 8 -10 -17 -13 -24 -12 -60 6 -64 33 -72 41 -50 49 28 12 31 10 26 -11z
m177 10 c0 -5 -4 -10 -10 -10 -5 0 -10 5 -10 10 0 6 5 10 10 10 6 0 10 -4 10
-10z m-2642 -21 c17 -20 59 -18 46 2 -3 5 3 6 12 2 14 -5 12 -8 -10 -20 -15
-8 -24 -18 -21 -23 4 -6 2 -10 -3 -10 -5 0 -12 9 -15 21 -3 12 -10 18 -17 14
-6 -4 -9 -1 -8 7 2 7 -5 12 -14 12 -10 -1 -15 2 -12 7 9 15 25 10 42 -12z
m895 -4 c-7 -21 -12 -19 -10 4 0 11 5 18 9 15 4 -3 5 -11 1 -19z m237 5 c0 -5
-5 -12 -10 -15 -6 -4 -7 -12 -3 -18 4 -7 -3 -5 -16 3 -24 16 -25 37 -2 32 7
-2 10 1 6 7 -3 7 0 8 9 5 9 -3 16 -10 16 -14z m158 4 c5 3 12 0 15 -8 4 -10
-1 -12 -16 -9 -18 4 -19 3 -7 -6 8 -6 11 -11 5 -11 -16 0 -31 14 -29 28 3 25
5 27 13 13 5 -7 13 -11 19 -7z m-1111 0 c-3 -3 -12 -4 -19 -1 -8 3 -5 6 6 6
11 1 17 -2 13 -5z m543 -4 c13 -8 13 -10 -2 -10 -9 0 -20 5 -23 10 -8 13 5 13
25 0z m1877 -5 c9 -24 -1 -27 -15 -5 -8 13 -8 20 -2 20 6 0 13 -7 17 -15z m83
-8 c11 -5 9 -6 -4 -4 -11 1 -21 9 -23 17 -3 10 -2 11 4 4 4 -6 15 -14 23 -17z
m-2550 -12 c-8 -10 -6 -15 11 -20 16 -5 18 -9 8 -15 -7 -5 -17 -6 -21 -4 -4 3
-8 0 -8 -6 0 -7 8 -9 20 -5 17 5 19 3 16 -17 -3 -13 -5 -25 -6 -28 -2 -3 -2
-8 -1 -12 0 -5 -5 -8 -11 -9 -7 0 -31 -2 -53 -3 l-40 -4 32 10 c17 6 34 16 37
23 9 24 -6 55 -33 70 -19 10 -21 14 -9 15 10 0 15 5 12 13 -4 10 3 12 26 9 24
-3 28 -7 20 -17z m564 -4 c-2 -3 -12 3 -22 13 -16 17 -16 18 5 5 12 -7 20 -15
17 -18z m116 19 c0 -5 -7 -7 -15 -4 -8 4 -15 8 -15 10 0 2 7 4 15 4 8 0 15 -4
15 -10z m-633 -32 c-3 -8 -6 -5 -6 6 -1 11 2 17 5 13 3 -3 4 -12 1 -19z m1033
7 c0 -8 -3 -14 -7 -14 -28 5 -45 -2 -39 -17 3 -8 2 -12 -4 -9 -17 11 -11 31
13 43 31 15 37 14 37 -3z m44 0 c11 -8 15 -15 9 -15 -7 0 -15 5 -18 10 -4 6
-11 8 -16 5 -5 -4 -9 -1 -9 4 0 15 11 13 34 -4z m1381 5 c3 -5 2 -10 -4 -10
-5 0 -13 5 -16 10 -3 6 -2 10 4 10 5 0 13 -4 16 -10z m-2555 -35 c0 -2 -6 -3
-12 -2 -43 1 -51 -3 -37 -20 13 -15 12 -15 -8 -3 -21 14 -21 14 -2 28 11 7 16
18 13 24 -4 5 5 2 20 -7 14 -10 26 -19 26 -20z m2087 13 c-3 -8 -6 -5 -6 6 -1
11 2 17 5 13 3 -3 4 -12 1 -19z m-1480 6 c-3 -3 -12 -4 -19 -1 -8 3 -5 6 6 6
11 1 17 -2 13 -5z m178 -4 c3 -5 1 -10 -4 -10 -6 0 -11 5 -11 10 0 6 2 10 4
10 3 0 8 -4 11 -10z m1712 -5 c0 -8 -4 -12 -9 -9 -4 3 -8 9 -8 15 0 5 4 9 8 9
5 0 9 -7 9 -15z m-1345 -2 c-6 -2 -9 -10 -6 -15 4 -7 2 -8 -5 -4 -13 9 -5 26
12 25 9 0 8 -2 -1 -6z m-392 -13 c0 -5 -2 -10 -4 -10 -3 0 -8 5 -11 10 -3 6
-1 10 4 10 6 0 11 -4 11 -10z m295 -10 c-3 -5 -11 -10 -16 -10 -6 0 -7 5 -4
10 3 6 11 10 16 10 6 0 7 -4 4 -10z m-50 -30 c-3 -5 3 -10 12 -13 10 -2 3 -3
-15 -2 -18 2 -36 6 -40 11 -4 4 1 4 11 1 15 -6 17 -3 11 15 -6 20 -5 21 9 9 9
-7 15 -17 12 -21z m1575 17 c0 -7 -10 -13 -21 -14 -21 -2 -21 -1 -3 12 24 18
24 18 24 2z m-1500 -7 c-8 -5 -26 -9 -40 -9 -21 0 -22 2 -7 8 10 4 28 8 40 8
17 2 19 0 7 -7z m1567 -6 c-3 -3 -12 -4 -19 -1 -8 3 -5 6 6 6 11 1 17 -2 13
-5z m-2537 -30 c0 -2 -7 -4 -15 -4 -8 0 -15 4 -15 10 0 5 7 7 15 4 8 -4 15 -8
15 -10z m2505 6 c3 -5 1 -10 -4 -10 -6 0 -11 5 -11 10 0 6 2 10 4 10 3 0 8 -4
11 -10z m-1654 -9 c-7 -4 -11 -13 -9 -18 4 -13 -44 -59 -69 -67 -10 -3 -25 -1
-33 4 -12 8 -9 9 10 8 20 -2 25 1 23 17 -1 11 0 14 3 8 8 -18 21 -16 21 2 0
15 -9 19 -39 16 -24 -3 -23 6 2 19 14 8 26 8 40 0 15 -8 18 -7 15 2 -3 8 4 14
21 15 16 0 22 -2 15 -6z m1696 -28 c0 -9 -4 -10 -14 -2 -7 6 -13 12 -13 14 0
1 6 2 13 2 8 0 14 -6 14 -14z m-2650 -18 c9 -24 -1 -27 -20 -5 -14 17 -15 20
-2 20 9 0 18 -7 22 -15z m88 5 c3 -6 -4 -10 -17 -10 -18 0 -20 2 -8 10 19 12
18 12 25 0z m2596 -15 c5 3 6 -1 2 -10 -5 -13 -7 -14 -14 -3 -5 7 -8 20 -8 28
1 11 3 10 6 -3 2 -9 9 -15 14 -12z m-2711 -6 c0 -14 -17 -10 -23 5 -4 10 -1
13 9 9 7 -3 14 -9 14 -14z m56 12 c-8 -12 29 -52 39 -43 5 4 5 1 1 -6 -4 -7
-2 -19 4 -27 8 -10 9 -15 2 -15 -6 0 -13 9 -17 19 -4 13 -12 17 -26 14 -12 -3
-24 -1 -28 6 -5 8 -12 7 -25 -2 -16 -12 -17 -17 -6 -38 12 -22 12 -23 -3 -10
-10 7 -17 20 -17 27 0 9 -6 11 -17 7 -16 -6 -16 -4 -5 9 7 9 21 17 30 17 40
-1 57 9 55 30 -2 11 2 21 8 21 5 0 8 -4 5 -9z m2696 -53 c-11 -11 -32 -3 -32
12 0 4 9 6 21 3 13 -4 17 -9 11 -15z m-2782 -41 c0 -5 -7 -7 -15 -4 -8 4 -17
2 -20 -3 -4 -6 -11 -10 -16 -10 -5 0 -4 6 3 14 14 15 48 17 48 3z m104 -2 c18
-13 15 -19 -6 -16 -4 0 -5 -6 -1 -14 4 -13 8 -13 21 -3 12 10 14 10 8 1 -4 -7
-3 -13 2 -13 6 0 12 -6 15 -13 3 -8 -1 -14 -9 -14 -8 0 -14 7 -14 14 0 8 -3
12 -8 9 -13 -8 -44 22 -36 35 5 9 2 10 -9 6 -17 -6 -23 4 -10 16 10 11 26 8
47 -8z m-14 -57 c0 -13 -17 -9 -34 8 -22 22 -20 25 9 12 14 -6 25 -15 25 -20z
m80 18 c0 -3 -4 -8 -10 -11 -5 -3 -10 -1 -10 4 0 6 5 11 10 11 6 0 10 -2 10
-4z m1367 -38 c-3 -8 -6 -5 -6 6 -1 11 2 17 5 13 3 -3 4 -12 1 -19z m-1456
-15 c13 -16 12 -17 -3 -4 -10 7 -18 15 -18 17 0 8 8 3 21 -13z m77 -8 c3 -3
-2 -5 -12 -5 -9 0 -14 -4 -11 -10 3 -5 4 -10 1 -10 -3 0 -10 9 -16 19 -9 17
-7 19 11 16 12 -3 24 -7 27 -10z m-83 -15 c3 -5 -1 -10 -9 -10 -9 0 -16 5 -16
10 0 6 4 10 9 10 6 0 13 -4 16 -10z m-50 -20 c3 -5 1 -10 -4 -10 -6 0 -11 5
-11 10 0 6 2 10 4 10 3 0 8 -4 11 -10z m90 0 c-3 -5 -12 -10 -18 -10 -7 0 -6
4 3 10 19 12 23 12 15 0z m-119 -19 c-3 -4 6 -13 19 -19 29 -13 35 -43 7 -36
-26 7 -48 64 -25 64 2 0 2 -4 -1 -9z m161 -24 c11 -23 9 -24 -23 -22 -40 2
-52 11 -36 27 9 9 12 8 12 -4 0 -11 6 -15 20 -11 16 4 18 8 9 19 -6 8 -7 14
-2 14 5 0 15 -11 20 -23z m1427 7 c5 -14 4 -15 -9 -4 -17 14 -19 20 -6 20 5 0
12 -7 15 -16z m-1524 -4 c0 -5 -2 -10 -4 -10 -3 0 -8 5 -11 10 -3 6 -1 10 4
10 6 0 11 -4 11 -10z m-87 -13 c3 -8 -1 -14 -8 -14 -7 0 -11 6 -8 14 3 7 6 13
8 13 2 0 5 -6 8 -13z m1987 -1 c0 -2 -11 -6 -25 -8 -13 -3 -22 -1 -19 3 5 9
44 13 44 5z m-1938 -53 c-6 -2 -10 -9 -7 -13 3 -5 1 -11 -4 -14 -7 -5 -8 11
-2 32 1 1 7 2 14 1 9 0 9 -2 -1 -6z m98 -1 c0 -5 -7 -9 -15 -9 -8 0 -15 4 -15
9 0 4 7 8 15 8 8 0 15 -4 15 -8z m-65 -32 c-3 -5 -10 -10 -16 -10 -5 0 -9 5
-9 10 0 6 7 10 16 10 8 0 12 -4 9 -10z m120 0 c3 -5 1 -10 -4 -10 -6 0 -11 5
-11 10 0 6 2 10 4 10 3 0 8 -4 11 -10z m-95 -14 c0 -3 -4 -8 -10 -11 -5 -3
-10 -1 -10 4 0 6 5 11 10 11 6 0 10 -2 10 -4z m110 -26 c0 -5 -7 -10 -16 -10
-8 0 -12 5 -9 10 3 6 10 10 16 10 5 0 9 -4 9 -10z m-44 -27 c0 -14 -9 -18 -38
-19 -42 -1 -45 4 -7 11 13 3 25 9 27 15 6 16 18 11 18 -7z m54 -17 c0 -2 -9
-2 -20 1 -11 3 -20 9 -20 15 0 5 9 4 20 -2 11 -6 20 -12 20 -14z m-260 -22 c0
-2 -7 -4 -15 -4 -8 0 -15 4 -15 10 0 5 7 7 15 4 8 -4 15 -8 15 -10z m240 6 c0
-5 -2 -10 -4 -10 -3 0 -8 5 -11 10 -3 6 -1 10 4 10 6 0 11 -4 11 -10z m-160
-10 c0 -5 -2 -10 -4 -10 -3 0 -8 5 -11 10 -3 6 -1 10 4 10 6 0 11 -4 11 -10z
m115 0 c3 -5 1 -10 -4 -10 -6 0 -11 5 -11 10 0 6 2 10 4 10 3 0 8 -4 11 -10z
m-159 -33 c4 -4 -4 -6 -19 -5 -14 1 -24 5 -21 9 5 9 31 6 40 -4z m19 -27 c-3
-5 -12 -10 -18 -10 -7 0 -6 4 3 10 19 12 23 12 15 0z m32 -45 c0 -8 -4 -12 -9
-9 -4 3 -8 9 -8 15 0 5 4 9 8 9 5 0 9 -7 9 -15z m78 -203 c-3 -3 -11 0 -18 7
-9 10 -8 11 6 5 10 -3 15 -9 12 -12z m5 -37 c7 -8 8 -15 2 -15 -5 0 -15 7 -22
15 -7 8 -8 15 -2 15 5 0 15 -7 22 -15z m30 -49 c0 -3 -4 -8 -10 -11 -5 -3 -10
-1 -10 4 0 6 5 11 10 11 6 0 10 -2 10 -4z m-32 -131 c-3 -3 -9 2 -12 12 -6 14
-5 15 5 6 7 -7 10 -15 7 -18z m16 -23 c3 -5 -1 -9 -9 -9 -8 0 -12 4 -9 9 3 4
7 8 9 8 2 0 6 -4 9 -8z m-107 -214 c-3 -8 -6 -5 -6 6 -1 11 2 17 5 13 3 -3 4
-12 1 -19z m1990 -30 c-3 -8 -6 -5 -6 6 -1 11 2 17 5 13 3 -3 4 -12 1 -19z
m40 -360 c-3 -8 -6 -5 -6 6 -1 11 2 17 5 13 3 -3 4 -12 1 -19z m10 -50 c-3 -8
-6 -5 -6 6 -1 11 2 17 5 13 3 -3 4 -12 1 -19z m0 -40 c-3 -8 -6 -5 -6 6 -1 11
2 17 5 13 3 -3 4 -12 1 -19z m11 -43 c-3 -3 -9 2 -12 12 -6 14 -5 15 5 6 7 -7
10 -15 7 -18z m-1 -37 c-3 -8 -6 -5 -6 6 -1 11 2 17 5 13 3 -3 4 -12 1 -19z
m23 -75 c0 -32 -5 -28 -14 10 -4 19 -3 26 4 22 5 -3 10 -18 10 -32z m17 -205
c-3 -8 -6 -5 -6 6 -1 11 2 17 5 13 3 -3 4 -12 1 -19z m930 -110 c-3 -7 -5 -2
-5 12 0 14 2 19 5 13 2 -7 2 -19 0 -25z m0 -120 c-3 -8 -6 -5 -6 6 -1 11 2 17
5 13 3 -3 4 -12 1 -19z m7 -113 c3 -38 3 -61 0 -50 -4 11 -9 25 -13 30 -4 6
-8 32 -9 59 -3 76 16 43 22 -39z m13 -117 c-3 -7 -5 -2 -5 12 0 14 2 19 5 13
2 -7 2 -19 0 -25z m20 -130 c-3 -8 -6 -5 -6 6 -1 11 2 17 5 13 3 -3 4 -12 1
-19z m-800 -805 c-3 -10 -5 -2 -5 17 0 19 2 27 5 18 2 -10 2 -26 0 -35z"/>
<path d="M5021 7154 c0 -11 3 -14 6 -6 3 7 2 16 -1 19 -3 4 -6 -2 -5 -13z"/>
<path d="M3732 4861 c2 -7 7 -12 11 -12 12 1 9 15 -3 20 -7 2 -11 -2 -8 -8z"/>
<path d="M3297 4536 c-3 -8 0 -19 7 -25 10 -9 12 -6 8 14 -5 29 -8 31 -15 11z"/>
<path d="M3703 4573 c-7 -2 -13 -11 -13 -19 0 -9 -4 -13 -9 -10 -4 3 -6 -6 -3
-19 2 -14 8 -22 13 -19 5 3 7 9 4 14 -3 5 5 16 17 24 12 9 17 16 10 16 -7 0
-10 5 -7 10 7 11 6 11 -12 3z"/>
<path d="M3855 4550 c3 -5 11 -10 16 -10 6 0 7 5 4 10 -3 6 -11 10 -16 10 -6
0 -7 -4 -4 -10z"/>
<path d="M2296 4341 c-3 -5 1 -14 9 -21 11 -9 14 -8 12 9 -1 22 -12 28 -21 12z"/>
<path d="M2329 4269 c-8 -17 -8 -20 2 -17 7 2 13 12 15 21 3 23 -3 21 -17 -4z"/>
<path d="M3195 4190 c-3 -6 1 -7 9 -4 18 7 21 14 7 14 -6 0 -13 -4 -16 -10z"/>
<path d="M2310 4140 c0 -5 5 -10 11 -10 5 0 7 5 4 10 -3 6 -8 10 -11 10 -2 0
-4 -4 -4 -10z"/>
<path d="M4290 8353 c0 -7 9 -15 20 -18 11 -4 18 -10 15 -15 -2 -4 8 -10 24
-13 21 -4 33 -16 45 -44 15 -34 16 -30 5 17 -5 21 -51 60 -69 60 -9 0 -21 5
-28 12 -9 9 -12 9 -12 1z"/>
<path d="M4501 8254 c13 -17 26 -30 28 -27 3 2 -8 16 -24 31 l-28 27 24 -31z"/>
<path d="M3150 8255 c-7 -9 -21 -13 -31 -10 -12 4 -21 1 -25 -9 -3 -9 -16 -16
-28 -16 -17 -1 -18 -2 -5 -10 19 -11 81 15 98 41 14 23 8 25 -9 4z"/>
<path d="M4532 8191 c-11 -6 -9 -9 6 -13 15 -4 19 -2 15 8 -6 16 -4 16 -21 5z"/>
<path d="M3046 8143 c-6 -14 -5 -15 5 -6 7 7 10 15 7 18 -3 3 -9 -2 -12 -12z"/>
<path d="M4541 8133 c7 -12 15 -20 18 -17 3 2 -3 12 -13 22 -17 16 -18 16 -5
-5z"/>
<path d="M2950 8129 c0 -5 5 -7 10 -4 6 3 10 8 10 11 0 2 -4 4 -10 4 -5 0 -10
-5 -10 -11z"/>
<path d="M4740 8085 c-11 -13 -10 -14 4 -9 9 3 16 10 16 15 0 13 -6 11 -20 -6z"/>
<path d="M4700 8060 c-9 -6 -10 -10 -3 -10 6 0 15 5 18 10 8 12 4 12 -15 0z"/>
<path d="M4910 7699 c0 -5 5 -7 10 -4 6 3 10 8 10 11 0 2 -4 4 -10 4 -5 0 -10
-5 -10 -11z"/>
<path d="M4980 7496 c0 -2 8 -10 18 -17 15 -13 16 -12 3 4 -13 16 -21 21 -21
13z"/>
<path d="M4248 6893 c7 -3 16 -2 19 1 4 3 -2 6 -13 5 -11 0 -14 -3 -6 -6z"/>
<path d="M3921 6874 c0 -11 3 -14 6 -6 3 7 2 16 -1 19 -3 4 -6 -2 -5 -13z"/>
<path d="M4254 6845 c11 -8 24 -15 30 -15 5 0 1 7 -10 15 -10 8 -23 14 -29 14
-5 0 -1 -6 9 -14z"/>
<path d="M5030 6761 c0 -11 5 -23 11 -26 6 -4 8 -13 5 -21 -3 -8 -1 -14 4 -14
6 0 10 -8 10 -17 0 -14 3 -13 16 5 14 20 14 25 2 40 -8 9 -18 25 -21 35 -9 23
-27 22 -27 -2z"/>
<path d="M3961 6677 c-1 -11 -12 -20 -31 -23 -16 -4 -30 -11 -30 -16 0 -5 -5
-6 -10 -3 -13 8 -54 -81 -46 -101 3 -8 1 -14 -3 -14 -10 0 -9 -26 2 -36 4 -4
7 -15 7 -25 0 -38 84 -86 101 -58 11 18 2 29 -22 29 -11 0 -30 10 -42 21 -18
18 -19 21 -4 15 10 -3 25 -6 33 -6 9 0 13 -4 10 -9 -3 -5 14 -5 39 0 27 5 55
5 70 -1 22 -8 24 -7 22 12 -5 51 -47 63 -133 39 -51 -14 -81 -6 -59 15 7 8 22
14 33 14 10 0 29 12 43 26 13 14 34 30 47 35 22 9 26 36 5 32 -6 -1 -8 10 -5
24 3 17 1 24 -6 19 -6 -3 -13 2 -15 11 -4 17 -5 17 -6 0z"/>
<path d="M5041 6654 c0 -11 3 -14 6 -6 3 7 2 16 -1 19 -3 4 -6 -2 -5 -13z"/>
<path d="M4985 6639 c-4 -6 -5 -12 -2 -15 2 -3 7 2 10 11 7 17 1 20 -8 4z"/>
<path d="M3970 6536 c0 -9 30 -14 35 -6 4 6 -3 10 -14 10 -12 0 -21 -2 -21 -4z"/>
<path d="M4147 6494 c-22 -12 -25 -18 -18 -32 9 -17 17 -18 84 -13 10 0 16 5
13 10 -4 5 0 11 6 14 10 3 10 7 -1 20 -17 21 -47 21 -84 1z"/>
<path d="M4190 6429 c0 -5 5 -7 10 -4 6 3 10 8 10 11 0 2 -4 4 -10 4 -5 0 -10
-5 -10 -11z"/>
<path d="M3985 6222 c-34 -3 -45 -7 -130 -47 -33 -16 -63 -33 -67 -39 -12 -18
-9 -36 7 -36 8 0 22 -9 32 -20 10 -10 34 -21 53 -24 71 -9 111 -19 116 -27 3
-5 -1 -9 -9 -9 -10 0 -13 -8 -9 -27 5 -25 4 -27 -11 -14 -15 11 -17 11 -17 -2
0 -9 -6 -22 -14 -30 -13 -12 -12 -16 7 -24 12 -5 49 -8 82 -6 33 2 67 4 75 4
45 1 70 12 70 30 0 11 7 19 18 20 10 0 12 3 5 6 -7 2 -13 11 -13 18 0 17 -23
25 -71 25 -21 0 -39 4 -39 9 0 6 -18 20 -41 33 l-41 23 39 16 c80 34 172 51
238 44 62 -7 64 -7 58 14 -3 12 -8 20 -10 17 -3 -2 -21 7 -40 20 -30 20 -48
24 -117 25 -45 0 -94 1 -111 2 -16 1 -43 1 -60 -1z m115 -278 c0 -2 -7 -4 -15
-4 -8 0 -15 4 -15 10 0 5 7 7 15 4 8 -4 15 -8 15 -10z"/>
<path d="M2490 6194 c0 -8 5 -12 10 -9 6 4 8 11 5 16 -9 14 -15 11 -15 -7z"/>
<path d="M3367 6129 c4 -13 8 -18 11 -10 2 7 -1 18 -6 23 -8 8 -9 4 -5 -13z"/>
<path d="M4770 6126 c0 -2 8 -10 18 -17 15 -13 16 -12 3 4 -13 16 -21 21 -21
13z"/>
<path d="M4601 5936 c-9 -11 -6 -13 14 -13 27 0 34 12 11 20 -8 3 -19 0 -25
-7z"/>
<path d="M4613 5896 c3 -8 -2 -16 -14 -19 -11 -3 -16 -1 -13 5 4 6 -2 8 -12 6
-11 -2 -17 -11 -15 -19 13 -51 13 -54 1 -39 -10 13 -11 12 -6 -3 8 -25 -3 -67
-19 -67 -6 0 -25 11 -41 25 -25 21 -31 23 -43 11 -12 -13 -10 -20 17 -53 29
-37 29 -40 14 -60 -10 -11 -34 -23 -56 -26 -42 -7 -50 -11 -45 -25 2 -6 30 -1
63 9 68 22 75 18 77 -41 0 -19 7 -51 15 -70 l14 -35 -5 35 c-13 74 -17 140
-11 140 4 0 16 -5 27 -10 11 -6 19 -7 19 -1 0 5 -8 12 -17 16 -16 6 -16 8 -2
18 8 7 18 20 22 29 4 11 13 15 28 11 15 -4 20 -3 15 6 -4 6 -12 9 -17 6 -5 -4
-9 1 -9 9 0 17 -20 17 -33 1 -5 -6 -7 -5 -5 3 2 8 8 13 13 12 5 -1 12 7 16 17
7 16 8 16 8 1 1 -9 6 -20 12 -24 8 -4 9 1 4 16 -5 14 -3 20 3 16 6 -4 8 2 5
15 -5 16 -8 18 -15 7 -15 -21 2 33 18 59 11 18 11 22 -2 27 -11 4 -15 2 -11
-8z m-90 -161 c9 -23 -11 -28 -23 -5 -8 16 -8 20 4 20 7 0 16 -7 19 -15z"/>
<path d="M4767 5852 c3 -12 9 -25 14 -28 14 -8 11 10 -6 32 -13 18 -14 18 -8
-4z"/>
<path d="M3736 5815 c4 -8 13 -15 21 -15 12 0 12 2 -1 15 -8 8 -17 15 -20 15
-3 0 -3 -7 0 -15z"/>
<path d="M4795 5809 c-4 -11 -4 -23 -1 -26 3 -4 6 1 6 11 0 9 4 14 10 11 6 -3
7 1 4 9 -8 21 -11 20 -19 -5z"/>
<path d="M4718 5793 c6 -2 18 -2 25 0 6 3 1 5 -13 5 -14 0 -19 -2 -12 -5z"/>
<path d="M4801 5744 c0 -11 3 -14 6 -6 3 7 2 16 -1 19 -3 4 -6 -2 -5 -13z"/>
<path d="M4832 5735 c0 -16 2 -22 5 -12 2 9 2 23 0 30 -3 6 -5 -1 -5 -18z"/>
<path d="M4625 5649 c-3 -4 16 -11 42 -15 63 -9 114 -31 134 -56 16 -21 17
-21 17 5 0 15 -4 24 -9 21 -5 -3 -19 1 -31 7 -36 20 -148 47 -153 38z"/>
<path d="M4733 5498 c-17 -22 -26 -45 -10 -26 8 10 16 16 19 13 2 -3 5 2 5 10
0 18 -2 18 -14 3z"/>
<path d="M4660 5460 c-9 -6 -10 -10 -3 -10 6 0 15 5 18 10 8 12 4 12 -15 0z"/>
<path d="M3972 5305 c0 -16 2 -22 5 -12 2 9 2 23 0 30 -3 6 -5 -1 -5 -18z"/>
<path d="M3830 5310 c0 -5 5 -10 11 -10 5 0 7 5 4 10 -3 6 -8 10 -11 10 -2 0
-4 -4 -4 -10z"/>
<path d="M3896 5305 c-3 -9 0 -15 8 -15 8 0 17 -6 19 -12 3 -7 6 -2 7 12 l1
25 14 -25 c14 -25 20 -16 9 14 -8 20 -50 21 -58 1z"/>
<path d="M4191 5069 c-7 -22 -11 -43 -8 -45 2 -2 9 14 16 37 7 22 11 43 8 45
-2 2 -9 -14 -16 -37z"/>
<path d="M4488 5083 c7 -3 16 -2 19 1 4 3 -2 6 -13 5 -11 0 -14 -3 -6 -6z"/>
<path d="M4535 5070 c-3 -5 -1 -10 4 -10 6 0 11 5 11 10 0 6 -2 10 -4 10 -3 0
-8 -4 -11 -10z"/>
<path d="M3870 5001 c0 -5 7 -12 16 -15 8 -3 12 -11 8 -17 -5 -8 -3 -9 6 -4 7
4 16 2 21 -6 7 -11 9 -10 9 4 0 25 20 21 21 -5 1 -17 3 -18 6 -6 2 9 -1 26 -7
38 -9 16 -15 18 -30 10 -14 -7 -20 -7 -20 0 0 5 -7 10 -15 10 -8 0 -15 -4 -15
-9z"/>
<path d="M3965 5000 c3 -5 8 -10 11 -10 2 0 4 5 4 10 0 6 -5 10 -11 10 -5 0
-7 -4 -4 -10z"/>
<path d="M4485 4970 c-3 -5 -1 -10 4 -10 6 0 11 5 11 10 0 6 -2 10 -4 10 -3 0
-8 -4 -11 -10z"/>
<path d="M4136 4904 c-10 -31 -15 -58 -12 -61 2 -3 12 20 21 52 22 74 14 82
-9 9z"/>
<path d="M4401 4934 c0 -11 3 -14 6 -6 3 7 2 16 -1 19 -3 4 -6 -2 -5 -13z"/>
<path d="M4325 4820 c-4 -6 -15 -10 -26 -10 -11 0 -19 -7 -19 -16 0 -8 5 -12
10 -9 6 3 14 -5 20 -19 12 -34 18 -33 13 2 -4 25 -3 25 8 7 7 -11 12 -38 10
-60 -2 -36 7 -45 13 -13 2 7 6 25 11 41 4 15 4 38 1 51 -6 26 -32 41 -41 26z"/>
<path d="M4224 4766 l-39 -34 28 -11 c16 -6 32 -11 37 -11 6 0 21 80 15 88 -1
1 -19 -13 -41 -32z"/>
<path d="M3912 4708 c3 -9 72 -38 92 -38 5 0 2 8 -5 17 -9 11 -3 9 15 -5 34
-26 58 -29 49 -5 -5 12 -1 11 15 -5 21 -21 42 -29 42 -16 0 22 -24 44 -50 44
-16 0 -32 5 -35 10 -8 13 -127 11 -123 -2z"/>
<path d="M4317 4680 c-9 -34 -9 -50 2 -50 13 0 18 22 11 50 l-6 25 -7 -25z"/>
<path d="M3950 4660 c0 -5 4 -10 9 -10 6 0 13 5 16 10 3 6 -1 10 -9 10 -9 0
-16 -4 -16 -10z"/>
<path d="M4243 4526 c-1 -35 -46 -120 -73 -139 -10 -7 -22 -26 -25 -42 l-7
-30 31 35 c56 64 101 129 91 135 -5 3 7 21 27 39 l36 33 -39 0 c-38 0 -40 -2
-41 -31z"/>
<path d="M4180 4439 c0 -5 5 -7 10 -4 6 3 10 8 10 11 0 2 -4 4 -10 4 -5 0 -10
-5 -10 -11z"/>
<path d="M4166 4404 c-5 -14 -4 -15 9 -4 17 14 19 20 6 20 -5 0 -12 -7 -15
-16z"/>
<path d="M4171 4074 c0 -11 3 -14 6 -6 3 7 2 16 -1 19 -3 4 -6 -2 -5 -13z"/>
</g>
</svg>
